<?xml version="1.0" encoding="UTF-8"?>
<svg width="1200pt" height="1200pt" version="1.1" viewBox="0 0 1200 1200" xmlns="http://www.w3.org/2000/svg">
 <path d="m697.27 93.75h23.438c6.2812 0 12.082-3.3516 15.223-8.7891s3.1406-12.141 0-17.578-8.9414-8.7891-15.223-8.7891h-23.438c-6.2812 0-12.082 3.3516-15.223 8.7891s-3.1406 12.141 0 17.578 8.9414 8.7891 15.223 8.7891z"/>
 <path d="m791.02 93.75h23.438c6.2812 0 12.082-3.3516 15.223-8.7891s3.1406-12.141 0-17.578-8.9414-8.7891-15.223-8.7891h-23.438c-6.2812 0-12.082 3.3516-15.223 8.7891s-3.1406 12.141 0 17.578 8.9414 8.7891 15.223 8.7891z"/>
 <path d="m199.22 724.22h-23.438v-23.438c0-6.2812-3.3516-12.082-8.7891-15.223s-12.141-3.1406-17.578 0-8.7891 8.9414-8.7891 15.223v41.016c0 4.6602 1.8516 9.1328 5.1484 12.43 3.2969 3.2969 7.7695 5.1484 12.43 5.1484h41.016c6.2812 0 12.082-3.3516 15.223-8.7891s3.1406-12.141 0-17.578-8.9414-8.7891-15.223-8.7891z"/>
 <path d="m158.2 637.27c4.6602 0 9.1328-1.8516 12.43-5.1484 3.2969-3.2969 5.1484-7.7695 5.1484-12.43v-81.094c0-6.2812-3.3516-12.082-8.7891-15.223s-12.141-3.1406-17.578 0-8.7891 8.9414-8.7891 15.223v81.094c0 4.6602 1.8516 9.1328 5.1484 12.43 3.2969 3.2969 7.7695 5.1484 12.43 5.1484z"/>
 <path d="m158.2 475.08c4.6602 0 9.1328-1.8516 12.43-5.1484 3.2969-3.2969 5.1484-7.7695 5.1484-12.43v-81.094c0-6.2812-3.3516-12.082-8.7891-15.223s-12.141-3.1406-17.578 0-8.7891 8.9414-8.7891 15.223v81.094c0 4.6602 1.8516 9.1328 5.1484 12.43 3.2969 3.2969 7.7695 5.1484 12.43 5.1484z"/>
 <path d="m199.22 236.72h-41.016c-4.6602 0-9.1328 1.8516-12.43 5.1484-3.2969 3.2969-5.1484 7.7695-5.1484 12.43v41.016c0 6.2812 3.3516 12.082 8.7891 15.223s12.141 3.1406 17.578 0 8.7891-8.9414 8.7891-15.223v-23.438h23.438c6.2812 0 12.082-3.3516 15.223-8.7891s3.1406-12.141 0-17.578-8.9414-8.7891-15.223-8.7891z"/>
 <path d="m425.23 271.88h75.328c6.2812 0 12.082-3.3516 15.223-8.7891s3.1406-12.141 0-17.578-8.9414-8.7891-15.223-8.7891h-75.328c-6.2812 0-12.082 3.3516-15.223 8.7891s-3.1406 12.141 0 17.578 8.9414 8.7891 15.223 8.7891z"/>
 <path d="m367.48 254.3c0-4.6602-1.8516-9.1328-5.1484-12.43-3.2969-3.2969-7.7695-5.1484-12.43-5.1484h-75.352c-6.2812 0-12.082 3.3516-15.223 8.7891s-3.1406 12.141 0 17.578 8.9414 8.7891 15.223 8.7891h75.352c4.6602 0 9.1328-1.8516 12.43-5.1484 3.2969-3.2969 5.1484-7.7695 5.1484-12.43z"/>
 <path d="m575.88 271.88h75.352c6.2812 0 12.082-3.3516 15.223-8.7891s3.1406-12.141 0-17.578-8.9414-8.7891-15.223-8.7891h-75.352c-6.2812 0-12.082 3.3516-15.223 8.7891s-3.1406 12.141 0 17.578 8.9414 8.7891 15.223 8.7891z"/>
 <path d="m726.56 271.88h23.438v23.438c0 6.2812 3.3516 12.082 8.7891 15.223s12.141 3.1406 17.578 0 8.7891-8.9414 8.7891-15.223v-41.016c0-4.6602-1.8516-9.1328-5.1484-12.43-3.2969-3.2969-7.7695-5.1484-12.43-5.1484h-41.016c-6.2812 0-12.082 3.3516-15.223 8.7891s-3.1406 12.141 0 17.578 8.9414 8.7891 15.223 8.7891z"/>
 <path d="m774.94 680.16c-3.2852-4.6992-8.6562-7.5-14.391-7.5s-11.105 2.8008-14.391 7.5l-88.711 126.7-71.18-81.328c-3.332-3.8164-8.1523-6.0039-13.219-6.0039s-9.8867 2.1875-13.219 6.0039l-164.06 187.5c-2.9805 3.4062-4.5352 7.832-4.3359 12.352 0.19922 4.5234 2.1367 8.793 5.4062 11.926 3.2695 3.1289 7.6211 4.875 12.148 4.8789h515.62c4.3086-0.003906 8.4609-1.5859 11.68-4.4492 3.2148-2.8672 5.2695-6.8125 5.7695-11.09 0.5-4.2773-0.58984-8.5898-3.0586-12.117zm-327.28 226.88 125.32-143.23 63.633 72.656-15.516 22.289c-3.6016 5.1484-4.1797 11.828-1.5195 17.523 2.6562 5.6914 8.1523 9.5352 14.414 10.078 6.2578 0.54297 12.332-2.2969 15.934-7.4453l110.62-158.02 130.29 186.14z"/>
 <path d="m455.86 684.38c17.094 0 33.488-6.7891 45.574-18.879 12.09-12.086 18.879-28.48 18.879-45.574s-6.7891-33.488-18.879-45.574c-12.086-12.09-28.48-18.879-45.574-18.879s-33.488 6.7891-45.574 18.879c-12.09 12.086-18.879 28.48-18.879 45.574 0.023438 17.086 6.8242 33.465 18.906 45.547s28.461 18.883 45.547 18.906zm0-93.75c7.7695 0 15.223 3.0859 20.715 8.582 5.4961 5.4922 8.582 12.945 8.582 20.715s-3.0859 15.223-8.582 20.715c-5.4922 5.4961-12.945 8.582-20.715 8.582s-15.223-3.0859-20.715-8.582c-5.4961-5.4922-8.582-12.945-8.582-20.715 0.011719-7.7656 3.1016-15.211 8.5938-20.703s12.938-8.582 20.703-8.5938z"/>
 <path d="m1194.8 1123.1-66-66.094 52.688-22.594c4.5703-1.9609 8.0977-5.7656 9.7031-10.473 1.6094-4.707 1.1445-9.875-1.2695-14.223-2.418-4.3477-6.5625-7.4688-11.41-8.5859l-142.62-32.812v-442.17c-0.023438-17.086-6.8242-33.465-18.906-45.547s-28.461-18.883-45.547-18.906h-45.703v-444.14c0-4.6602-1.8516-9.1328-5.1484-12.43-3.2969-3.2969-7.7695-5.1484-12.43-5.1484h-890.62c-4.6602 0-9.1328 1.8516-12.43 5.1484-3.2969 3.2969-5.1484 7.7695-5.1484 12.43v843.75c0 4.6602 1.8516 9.1328 5.1484 12.43 3.2969 3.2969 7.7695 5.1484 12.43 5.1484h280.08v92.578c0.023438 17.086 6.8242 33.465 18.906 45.547s28.461 18.883 45.547 18.906h606.21l32.812 142.62c1.1172 4.8477 4.2383 8.9922 8.5859 11.41 4.3477 2.4141 9.5156 2.8789 14.223 1.2695 4.707-1.6055 8.5117-5.1328 10.473-9.7031l22.617-52.688 66.094 66c3.2891 3.3047 7.7617 5.1602 12.422 5.1602s9.1328-1.8555 12.422-5.1602l46.875-46.875c3.2969-3.293 5.1523-7.7617 5.1523-12.422s-1.8555-9.1289-5.1523-12.422zm-304.22-1088v82.031h-855.47v-82.031zm-592.97 491.02v198.05h-23.109c-6.2812 0-12.082 3.3516-15.223 8.7891s-3.1406 12.141 0 17.578 8.9414 8.7891 15.223 8.7891h23.109v84.375h-262.5v-691.41h855.47v309.38h-106.01c0.35937-1.3789 0.53906-2.7969 0.53906-4.2188v-81.094c0-6.2812-3.3516-12.082-8.7891-15.223s-12.141-3.1406-17.578 0-8.7891 8.9414-8.7891 15.223v81.094c0 1.4219 0.17969 2.8398 0.53906 4.2188h-388.43c-17.086 0.023438-33.465 6.8242-45.547 18.906s-18.883 28.461-18.906 45.547zm64.453 474.61c-7.7656-0.011719-15.211-3.1016-20.703-8.5938s-8.582-12.938-8.5938-20.703v-445.31c0.011719-7.7656 3.1016-15.211 8.5938-20.703s12.938-8.582 20.703-8.5938h609.38c7.7656 0.011719 15.211 3.1016 20.703 8.5938s8.582 12.938 8.5938 20.703v434.04l-25.336-5.8594c-5.9062-1.3555-12.098 0.42188-16.383 4.7109-4.2891 4.2852-6.0664 10.477-4.7109 16.383l5.8594 25.336zm773.44 156.77-71.953-71.93c-3.293-3.2969-7.7617-5.1523-12.422-5.1562-1.1172-0.007812-2.2344 0.10156-3.3281 0.32812-5.7227 1.1016-10.527 4.9766-12.82 10.336l-11.719 27.117-28.453-123.3 123.3 28.453-27.117 11.719c-5.3633 2.2891-9.2422 7.0938-10.344 12.82-1.1055 5.7305 0.70703 11.629 4.8359 15.75l71.93 71.953z"/>
</svg>
