<?xml version="1.0" encoding="UTF-8"?>
<svg width="1200pt" height="1200pt" version="1.1" viewBox="0 0 1200 1200" xmlns="http://www.w3.org/2000/svg">
 <path d="m1087.9 449.18-1.6445-1.3594c-15.762-13.012-32.91-21.004-47.863-23.359-11.766-1.8555-21.586-0.22656-26.715 5.2734l-2.4648 2.9492 107 89.773 1.957-2.3242c4.9766-5.9375 4.9883-16.156 1.0078-27.793-4.9453-14.414-15.773-29.961-31.266-43.156zm-132.58 320.93c15.223 23.742 27.453 49.578 36.098 76.906 9.75 30.77 15.023 63.48 15.023 97.301 0 56.777-23.23 108.41-60.633 145.83-37.418 37.488-89.066 60.719-145.87 60.719h-551.43c-56.734 0-108.41-23.246-145.83-60.691-37.461-37.375-60.691-89.035-60.691-145.86 0-82.359 31.125-157.82 82.148-215.14 51.605-57.984 123.66-97.5 204.59-106.95 4.2383-0.48047 8.3047 0.55469 11.652 2.6797 27.328 15.859 56.961 28.316 88.188 36.738 30.402 8.1914 62.504 12.57 95.656 12.57 33.152 0 65.238-4.3789 95.656-12.57 31.449-8.4766 61.27-21.047 88.797-37.09 3.4727-2.0117 7.3398-2.7227 11.043-2.2969 14.172 1.6172 28.105 4.2227 41.641 7.6523 9.4805 2.3945 18.922 5.2852 28.219 8.5898l194.05-231.28c13.676-16.285 35.73-22.039 60.238-18.184 21.16 3.332 44.633 14.004 65.395 31.168l1.6992 1.418c20.652 17.562 35.305 38.836 42.25 59.047 8.0352 23.457 6.1953 46.219-7.4961 62.547l-190.39 226.9zm-190.6-101.99c-3.9688-1.1914-8.0078-2.3086-12.09-3.3438-10.234-2.5781-20.68-4.6484-31.281-6.1094-28.742 16.172-59.684 28.93-92.199 37.699-33.504 9.0273-68.699 13.848-104.93 13.848-36.227 0-71.434-4.8203-104.93-13.848-32.512-8.7734-63.469-21.531-92.199-37.699-69.52 9.5547-131.4 44.207-176.09 94.41-45.355 50.953-73.02 118.04-73.02 191.24 0 46.887 19.191 89.531 50.102 120.45 30.84 30.926 73.504 50.102 120.42 50.102h551.43c46.871 0 89.504-19.191 120.42-50.102 30.91-30.871 50.09-73.531 50.09-120.45 0-30.117-4.6758-59.188-13.324-86.473-6.5352-20.664-15.352-40.352-26.137-58.719l-111.94 133.4c-2.2539 2.6797-5.3008 4.75-8.9297 5.7539l-148.44 41.598c-2.0273 0.53906-4.1797 0.75-6.3906 0.56641-9.8516-0.85156-17.164-9.5547-16.312-19.402l13.789-153.4c0.097656-3.9258 1.4727-7.8516 4.1797-11.082l107.77-128.44zm-240.49-618.99c71.348 0 135.98 28.941 182.74 75.699 46.758 46.758 75.699 111.39 75.699 182.75 0 71.363-28.941 135.99-75.699 182.75-46.758 46.758-111.39 75.699-182.74 75.699-71.363 0-135.99-28.941-182.75-75.699-46.758-46.758-75.699-111.4-75.699-182.75 0-71.363 28.941-135.99 75.699-182.75 46.758-46.758 111.39-75.699 182.75-75.699zm157.28 101.16c-40.238-40.238-95.867-65.156-157.28-65.156-61.426 0-117.06 24.918-157.3 65.156-40.238 40.238-65.156 95.867-65.156 157.3 0 61.414 24.918 117.06 65.156 157.3 40.238 40.238 95.867 65.156 157.3 65.156 61.414 0 117.04-24.918 157.28-65.156 40.238-40.238 65.156-95.867 65.156-157.3 0-61.426-24.918-117.06-65.156-157.3zm91.191 761.18-86.727-72.766-8.957 99.582zm-73.871-108.89 107.01 89.789 112.8-134.43 0.26953-0.33984 0.28516-0.33984 0.29688-0.33984 0.015625-0.015626 173.59-206.89-107-89.789-287.28 342.36z"/>
</svg>
