<?xml version="1.0" encoding="UTF-8"?>
<svg width="w-full" height="h-full" version="1.1" viewBox="0 0 1200 1200" xmlns="http://www.w3.org/2000/svg">
  <path
    d="m430.92 441.72c0 46.66-37.824 84.48-84.48 84.48-46.66 0-84.48-37.82-84.48-84.48 0-46.656 37.82-84.48 84.48-84.48 46.656 0 84.48 37.824 84.48 84.48" />
  <path d="m789.72 524.16-337.44 337.44h507.36v-167.52z" />
  <path
    d="m1012.7 301.2c0.35937 1.5586 0.60156 3.2383 0.60156 4.9219v587.64c0 11.879-9.6016 21.48-21.48 21.48l-593.28-0.003907-53.641 53.641h646.92c41.398 0 75.121-33.719 75.121-75.121v-587.64c0-16.68-5.5195-32.039-14.762-44.52z" />
  <path
    d="m1072.2 127.92c-10.441-10.441-27.48-10.441-37.922 0l-103.2 103.2h-722.88c-41.398 0-75.121 33.719-75.121 75.121v587.64c0 36.719 26.52 67.32 61.32 73.801l-66.48 66.48c-10.441 10.441-10.441 27.48 0 37.922 5.2812 5.2812 12.121 7.9219 18.961 7.9219s13.68-2.6406 18.961-7.9219l906.36-906.36c10.441-10.445 10.441-27.367 0-37.805zm-864 787.44c-11.879 0-21.48-9.6016-21.48-21.48v-587.76c0-11.879 9.6016-21.48 21.48-21.48h669.12l-413.76 413.88-68.16-68.16-155.04 155.04v76.32h60l-53.641 53.641z" />
</svg>