<?xml version="1.0" encoding="UTF-8"?>
<svg width="1200pt" height="1200pt" version="1.1" viewBox="0 0 1200 1200" xmlns="http://www.w3.org/2000/svg">
 <path d="m1042.7 1007.3c9.75 9.75 9.75 25.594 0 35.344-4.875 4.875-11.297 7.3125-17.672 7.3125s-12.797-2.4375-17.672-7.3125l-407.34-407.34-407.34 407.34c-4.875 4.875-11.297 7.3125-17.672 7.3125s-12.797-2.4375-17.672-7.3125c-9.75-9.75-9.75-25.594 0-35.344l407.34-407.34-407.34-407.34c-9.75-9.75-9.75-25.594 0-35.344s25.594-9.75 35.344 0l407.34 407.34 407.34-407.34c9.75-9.75 25.594-9.75 35.344 0s9.75 25.594 0 35.344l-407.34 407.34z"/>
</svg>
