<svg width="200pt" height="200pt" version="1.1" viewBox="0 0 1200 1200" xmlns="http://www.w3.org/2000/svg">
 <path d="m606.36 425.43 152.82 152.83c12.012 12.012 12.012 31.488 0 43.5l-152.82 152.82-43.5-43.5 100.32-100.32-425.89 0.003906v-61.523h425.89l-100.32-100.32zm-205.32-89.402h61.523v-83.363c0-21.215 17.473-38.699 38.699-38.699h361.22c21.227 0 38.699 17.473 38.699 38.699v694.67c0 10.668-4.3438 20.352-11.328 27.371l-0.058594-0.058594c-7.0195 7.0195-16.691 11.387-27.312 11.387h-361.22c-10.609 0-20.293-4.3672-27.312-11.387l-0.058594 0.058594c-6.9844-7.0195-11.328-16.703-11.328-27.371v-83.363h-61.527v83.363c0 45.012 29.41 70.105 29.41 70.812 18.145 18.145 43.211 29.41 70.801 29.41h361.22c27.59 0 52.656-11.27 70.801-29.41 0-0.70703 29.41-25.789 29.41-70.812l0.003906-694.67c0-55.176-45.047-100.22-100.22-100.22h-361.2c-55.176 0-100.22 45.035-100.22 100.22z" fill-rule="evenodd"/>
</svg>