<svg width="1200pt" height="1200pt" version="1.1" viewBox="0 0 1200 1200" xmlns="http://www.w3.org/2000/svg">
 <path d="m445.92 563.07h436.93l-77.965-77.965 52.223-52.223 141 141c14.41 14.41 14.41 37.801 0 52.223l-141 141-52.223-52.223 77.965-77.965-436.93 0.003906zm205.95-208.27h73.848v-75.742c0-48.469-39.504-87.984-87.996-87.984l-358.66-0.003906c-48.48 0-87.996 39.516-87.996 87.984v641.87c0 24.098 9.9102 46.094 25.883 62.102l-0.070312 0.070312c15.926 15.926 37.934 25.812 62.172 25.812h358.67c48.492 0 87.996-39.516 87.996-87.984v-75.73h-73.848v75.73c0 7.6914-6.4336 14.137-14.137 14.137h-358.67c-3.8516 0-7.3789-1.6094-9.9609-4.1875l-0.070313 0.085938-4.1055-10.031 0.003906-641.86c0-7.6914 6.4453-14.137 14.137-14.137h358.67c7.7031 0 14.137 6.4453 14.137 14.137z" fill-rule="evenodd"/>
</svg>