<?xml version="1.0" encoding="UTF-8"?>
<svg width="1200pt" height="1200pt" version="1.1" viewBox="0 0 1200 1200" xmlns="http://www.w3.org/2000/svg">
  <path
    d="m600 0c-247.5 0-448.83 201.33-448.83 448.83 0 80.625 37.969 182.34 115.78 311.02 64.688 106.88 144.84 213.05 215.39 306.56 32.578 43.125 63.281 83.906 86.953 117.66 7.0312 10.078 18.516 15.938 30.703 15.938s23.672-5.8594 30.703-15.938c23.672-33.75 54.375-74.531 86.953-117.66 70.547-93.516 150.47-199.69 215.39-306.56 77.812-128.67 115.78-230.39 115.78-311.02 0-247.5-201.33-448.83-448.83-448.83zm0 656.25c-114.38 0-207.42-93.047-207.42-207.42s93.047-207.42 207.42-207.42 207.42 93.047 207.42 207.42-93.047 207.42-207.42 207.42z" />
</svg>