<svg width="23pt" height="23pt" version="1.1" viewBox="0 0 1200 1200" xmlns="http://www.w3.org/2000/svg">
 <path d="m609.83 36.543c-5.8555-4.2812-13.812-4.2812-19.668 0-197.88 144.63-440.16 422.86-440.16 680.12 0 248.13 201.87 450 450 450s450-201.87 450-450c0-254.94-238.67-532.86-440.17-680.12zm-9.832 1096.8c-229.75 0-416.67-186.91-416.67-416.67 0-242.5 224.88-497.48 416.67-645.74 191.77 148.25 416.67 403.25 416.67 645.75 0 229.75-186.92 416.66-416.67 416.66z"/>
 <path d="m598.2 827.04 13.223-13.223c6.5078-6.5078 6.5078-17.062-0.003906-23.57-6.5078-6.5078-17.059-6.5078-23.57 0.003906l-19.137 19.141c-20-10.391-38.508-23.215-55.23-38.02l21.777-21.777c6.5078-6.5117 6.5078-17.062 0-23.57-6.5117-6.5078-17.062-6.5078-23.57 0l-21.777 21.777c-14.836-16.754-27.68-35.312-38.078-55.359l19.105-19.105c6.5078-6.5117 6.5078-17.062 0-23.57-6.5117-6.5078-17.062-6.5078-23.57 0l-13.215 13.215c-29.188-32.898-82.105-36.582-115.35-3.3359-14.285 14.289-22.188 33.211-23.062 52.617l-31.254-2.8594c-9.168-0.875-17.277 5.9102-18.117 15.078s5.9102 17.277 15.078 18.117l40.312 3.6914c4.0195 9.6289 14.012 29.25 25.594 47.918l-27.633 8.9648c-8.7539 2.8398-13.551 12.242-10.707 20.996 2.8281 8.707 12.184 13.559 20.996 10.707l36.785-11.938c9.5703 12.977 19.859 25.387 30.793 37.191l-22.469 22.469c-6.5078 6.5117-6.5078 17.062 0 23.57 6.5117 6.5078 17.059 6.5078 23.57 0l22.469-22.469c11.609 10.75 23.805 20.867 36.543 30.301l-11.898 36.664c-2.8398 8.7539 1.9531 18.156 10.707 20.996 8.7188 2.832 18.145-1.9219 20.996-10.707l8.9062-27.441c14.641 9.1211 29.852 17.41 45.598 24.758 0 0.003906 0 0.003906 0.003906 0.003906 0.79688 0.37109 1.6094 0.67188 2.4141 1.0117l3.6562 39.941c0.84375 9.207 8.9961 15.922 18.117 15.078 9.168-0.83984 15.918-8.9492 15.078-18.117l-2.8008-30.609c19.566-0.74609 38.711-8.6406 53.168-23.098 33.277-33.277 29.551-86.27-3.4453-115.44z"/>
 <path d="m493.93 589.4c22.746 22.742 59.75 22.746 82.496 0l23.57-23.57 23.57 23.57c22.75 22.746 59.75 22.742 82.496 0 22.742-22.746 22.742-59.754 0-82.496l-23.57-23.57 23.57-23.57c22.742-22.746 22.742-59.754 0-82.496-22.746-22.738-59.75-22.742-82.496 0l-23.57 23.57-23.57-23.57c-22.746-22.742-59.75-22.738-82.496 0-22.742 22.746-22.742 59.754 0 82.496l23.57 23.57-23.57 23.57c-22.746 22.746-22.746 59.754 0 82.496z"/>
 <path d="m917.7 708.33c-4.6055-7.9727-14.801-10.699-22.766-6.1016l-15.941 9.2031c-11.762-13.254-27.656-22.754-45.664-26.426v-18.34c0-9.207-7.4609-16.668-16.668-16.668-9.207 0-16.668 7.4609-16.668 16.668v18.344c-18.004 3.668-33.902 13.172-45.664 26.426l-15.941-9.2031c-7.9766-4.6016-18.168-1.875-22.766 6.1016-4.6016 7.9727-1.8711 18.164 6.1016 22.766l15.906 9.1836c-5.7344 17.137-5.7461 35.594 0 52.766l-15.906 9.1836c-7.9727 4.6016-10.703 14.797-6.1016 22.766 4.6328 8.0234 14.848 10.672 22.766 6.1016l15.941-9.2031c11.762 13.254 27.656 22.754 45.664 26.426l0.003906 18.344c0 9.207 7.4609 16.668 16.668 16.668s16.668-7.4609 16.668-16.668v-18.344c18.004-3.668 33.902-13.172 45.664-26.426l15.941 9.2031c7.9688 4.5977 18.164 1.8789 22.766-6.1016 4.6016-7.9727 1.8711-18.164-6.1016-22.766l-15.906-9.1836c5.7344-17.137 5.7461-35.594 0-52.766l15.906-9.1836c7.9688-4.6055 10.699-14.797 6.0977-22.77zm-101.04 108.34c-27.57 0-50-22.43-50-50 0-27.57 22.43-50 50-50 27.566 0 50 22.43 50 50 0 27.566-22.434 50-50 50z"/>
 <path d="m716.67 916.67c-36.762 0-66.668 29.906-66.668 66.668 0 36.762 29.906 66.668 66.668 66.668s66.668-29.906 66.668-66.668c-0.003907-36.762-29.91-66.668-66.668-66.668zm0 100c-18.379 0-33.332-14.953-33.332-33.332 0-18.379 14.953-33.332 33.332-33.332 18.379 0 33.332 14.953 33.332 33.332 0 18.379-14.953 33.332-33.332 33.332z"/>
 <path d="m366.67 550c27.57 0 50-22.43 50-50s-22.43-50-50-50c-27.57 0-50 22.43-50 50s22.43 50 50 50zm0-66.668c9.1914 0 16.668 7.4766 16.668 16.668s-7.4766 16.668-16.668 16.668c-9.1914 0-16.668-7.4766-16.668-16.668s7.4766-16.668 16.668-16.668z"/>
 <path d="m833.33 583.33c36.762 0 66.668-29.906 66.668-66.668 0-36.762-29.906-66.668-66.668-66.668s-66.668 29.906-66.668 66.668c0.003907 36.762 29.91 66.668 66.668 66.668zm0-100c18.379 0 33.332 14.953 33.332 33.332 0 18.379-14.953 33.332-33.332 33.332-18.379 0-33.332-14.953-33.332-33.332 0-18.379 14.953-33.332 33.332-33.332z"/>
 <path d="m578.45 245.12 16.668-16.668c6.5078-6.5117 6.5078-17.062 0-23.57-6.5117-6.5078-17.062-6.5078-23.57 0l-16.668 16.668c-6.5078 6.5117-6.5078 17.062 0 23.57 6.5078 6.5039 17.059 6.5039 23.57 0z"/>
 <path d="m671.55 295.12c6.5117 6.5078 17.059 6.5078 23.57 0 6.5078-6.5117 6.5078-17.062 0-23.57l-16.668-16.668c-6.5117-6.5078-17.062-6.5078-23.57 0-6.5078 6.5117-6.5078 17.062 0 23.57z"/>
 <path d="m421.55 361.79c6.5117 6.5078 17.059 6.5078 23.57 0 6.5078-6.5117 6.5078-17.062 0-23.57l-16.668-16.668c-6.5117-6.5078-17.062-6.5078-23.57 0-6.5078 6.5117-6.5078 17.062 0 23.57z"/>
 <path d="m661.79 654.88c-6.5117-6.5078-17.062-6.5078-23.57 0l-16.668 16.668c-6.5078 6.5117-6.5078 17.062 0 23.57 6.5117 6.5078 17.059 6.5078 23.57 0l16.668-16.668c6.5078-6.5078 6.5078-17.059 0-23.57z"/>
 <path d="m600 1033.3h-16.668c-9.207 0-16.668 7.4609-16.668 16.668s7.4609 16.668 16.668 16.668h16.668c9.207 0 16.668-7.4609 16.668-16.668s-7.4609-16.668-16.668-16.668z"/>
 <path d="m871.55 888.21-16.668 16.668c-6.5078 6.5117-6.5078 17.062 0 23.57 6.5117 6.5078 17.059 6.5078 23.57 0l16.668-16.668c6.5078-6.5117 6.5078-17.062 0-23.57-6.5078-6.5078-17.059-6.5078-23.57 0z"/>
 <path d="m928.45 621.55-16.668-16.668c-6.5117-6.5078-17.062-6.5078-23.57 0-6.5078 6.5117-6.5078 17.062 0 23.57l16.668 16.668c6.5117 6.5078 17.059 6.5078 23.57 0 6.5078-6.5078 6.5078-17.059 0-23.57z"/>
</svg>