<svg width="23pt" height="23pt" version="1.1" viewBox="0 0 1200 1200" xmlns="http://www.w3.org/2000/svg">
 <path d="m804 780c118.5 0 216-97.5 216-216v-216c0-118.5-97.5-216-216-216h-552c-118.5 0-216 97.5-216 216v216c0.011719 105.9 77.902 196.95 182.52 213.36l-82.918 134.64c-2.1133 3.6484-3.2188 7.7891-3.2188 12 0 13.02 10.598 23.797 23.617 24 2.9141 0.011719 5.8086-0.51562 8.5195-1.5586l439.92-166.44zm-212.52-46.441-377.88 142.44 66.84-108c2.1094-3.6484 3.2148-7.7891 3.2148-12 0-13.02-10.598-23.797-23.617-24h-8.0391c-92.16 0-168-75.84-168-168v-216c0-92.16 75.84-168 168-168h552c92.16 0 168 75.84 168 168v216c0 92.16-75.84 168-168 168h-204c-2.9141-0.011719-5.8086 0.51562-8.5195 1.5586z"/>
 <path d="m1108.9 324c-4.5742-5.1367-11.125-8.0742-18-8.0742-13.227 0-24.098 10.871-24.098 24.094 0 5.9062 2.1719 11.605 6.0977 16.02 27.633 30.734 42.98 70.621 43.078 111.96v216c0 92.16-75.84 168-168 168h-8.0391c-13.02 0.20312-23.617 10.98-23.617 24 0 4.2109 1.1055 8.3516 3.2148 12l66.84 108-377.88-142.44c-2.7109-1.043-5.6055-1.5703-8.5195-1.5586h-60c-13.164 0-24 10.836-24 24s10.836 24 24 24h55.559l439.92 166.44c2.7109 1.043 5.6055 1.5703 8.5195 1.5586 13.02-0.20312 23.617-10.98 23.617-24 0-4.2109-1.1055-8.3516-3.2188-12l-82.918-134.64c104.62-16.414 182.51-107.46 182.52-213.36v-216c-0.023438-53.125-19.645-104.43-55.078-144z"/>
 <path d="m360 456c0 26.508-21.492 48-48 48s-48-21.492-48-48 21.492-48 48-48 48 21.492 48 48" fill-rule="evenodd"/>
 <path d="m576 456c0 26.508-21.492 48-48 48s-48-21.492-48-48 21.492-48 48-48 48 21.492 48 48" fill-rule="evenodd"/>
 <path d="m792 456c0 26.508-21.492 48-48 48s-48-21.492-48-48 21.492-48 48-48 48 21.492 48 48" fill-rule="evenodd"/>
</svg>