<svg width="23pt" height="23pt" version="1.1" viewBox="0 0 1200 1200" xmlns="http://www.w3.org/2000/svg">
 <path d="m1087.5 468.75c26.793 0 51.555-14.293 64.953-37.5 13.395-23.207 13.395-51.793 0-75-13.398-23.207-38.16-37.5-64.953-37.5h-85.895c-33.805-131.64-94.387-281.25-195.36-281.25s-161.55 149.61-195.36 281.25h-160.89c-12.332 0.085938-24.449 3.25-35.25 9.207-23.289-30.957-49.125-46.707-77.25-46.707-83.457 0-131.96 138.34-158.59 260.77l-67.145-0.14844h-0.28125c-19.871-0.085938-38.926 7.8828-52.82 22.086-14.281 14.621-21.934 34.461-21.168 54.883 0.4375 20.148 8.7148 39.328 23.066 53.473 14.355 14.145 33.656 22.137 53.809 22.277h0.65625c11.945-0.11328 25.426-0.20703 39.375-0.28125-2.7578 28.668-4.4062 54.676-4.4062 74.438 0 112.5 50.008 192.21 131.25 216.84v139.41h-225c-6.6992 0-12.887 3.5742-16.238 9.375-3.3477 5.8008-3.3477 12.949 0 18.75 3.3516 5.8008 9.5391 9.375 16.238 9.375h1087.5c6.6992 0 12.887-3.5742 16.238-9.375 3.3477-5.8008 3.3477-12.949 0-18.75-3.3516-5.8008-9.5391-9.375-16.238-9.375h-281.25v-137.77c113.46-26.961 183.11-137.96 187.09-303.62v-0.003906c16.199-9.1562 28.395-24.031 34.195-41.711 5.8008-17.68 4.7891-36.891-2.8359-53.863-7.6289-16.973-21.316-30.484-38.391-37.887-2.8516-26.887-6.4688-54.094-10.707-81.395zm-281.25-393.75c58.855 0 115.41 88.555 156.58 243.75h-313.12c41.137-155.2 97.688-243.75 156.54-243.75zm-468.75 243.75c16.445 0 33.055 11.645 49.5 34.633-13.742 21.176-15.824 47.875-5.5273 70.926 10.293 23.055 31.566 39.324 56.508 43.223 7.1641 23.156 13.82 48.355 19.895 75.43l-240.58-0.80469c31.164-138.38 76.559-223.41 120.21-223.41zm305.42 150c9.2461-0.30469 18.156 3.4805 24.355 10.344 6.1992 6.8672 9.0625 16.113 7.8203 25.281-1.4062 10.621-6.543 20.398-14.496 27.582-7.9531 7.1836-18.199 11.305-28.91 11.625h-23.23c2.7734-24.602 6.1445-49.508 10.105-74.719zm-72.207 74.586-74.438-0.24219c-5.625-26.344-11.945-51.301-18.75-74.344h103.12c-3.8984 25.148-7.2109 50.012-9.9375 74.586zm-383.21 225.41c0-19.445 1.7422-45.637 4.8008-74.645 44.418-0.1875 91.387-0.28125 126.58-0.32031v0.003906c13.105 0.43359 25.035 7.6875 31.453 19.129 6.418 11.438 6.3945 25.398-0.066407 36.812-6.457 11.418-18.41 18.629-31.52 19.02h-18.863c-26.793 0-51.555 14.293-64.949 37.5-13.398 23.207-13.398 51.793 0 75 13.395 23.207 38.156 37.5 64.949 37.5h136.33c-26.406 25.453-62.074 39-98.719 37.5-110.62 0-150-96.863-150-187.5zm450.19 150c29.02 34.41 68.438 58.457 112.31 68.512v137.74h-356.25v-139.35c37.113-10.906 69.168-34.609 90.469-66.898zm-318.94 206.25v-132.17c6.1328 0.54297 12.355 0.91797 18.75 0.91797s12.602-0.50781 18.75-1.0312v132.28zm506.25 0h-37.5v-132.19c6.1875 0.44922 12.375 0.9375 18.75 0.9375s12.562-0.52344 18.75-0.97656zm-18.75-168.75c-41.609 1.1953-82.348-12.055-115.29-37.5h59.043c26.793 0 51.555-14.293 64.953-37.5 13.395-23.207 13.395-51.793 0-75-13.398-23.207-38.16-37.5-64.953-37.5h-37.5c-13.398 0-25.777-7.1484-32.477-18.75-6.6992-11.602-6.6992-25.898 0-37.5 6.6992-11.602 19.078-18.75 32.477-18.75h299.29c-6.9961 164.76-82.727 262.5-205.54 262.5zm232.78-310.99c-7.0195 7.0625-16.574 11.02-26.531 10.988h-300c-26.793 0-51.555 14.293-64.953 37.5-13.395 23.207-13.395 51.793 0 75 13.398 23.207 38.16 37.5 64.953 37.5h37.5c13.398 0 25.777 7.1484 32.477 18.75 6.6992 11.602 6.6992 25.898 0 37.5-6.6992 11.602-19.078 18.75-32.477 18.75h-450c-13.398 0-25.777-7.1484-32.477-18.75-6.6992-11.602-6.6992-25.898 0-37.5 6.6992-11.602 19.078-18.75 32.477-18.75h18.75c26.793 0.019531 51.566-14.258 64.98-37.453 13.414-23.191 13.438-51.781 0.054687-75-13.379-23.215-38.129-37.527-64.922-37.547h-0.09375c-57.449 0-146.25 0.28125-204.07 0.80469h-0.32031c-10.562-0.20703-20.621-4.5664-27.992-12.137-7.3672-7.5703-11.457-17.738-11.383-28.305-0.21875-9.8125 3.5312-19.297 10.402-26.305 6.8672-7.0078 16.273-10.949 26.086-10.934h0.14844l519.82 1.7422h0.20703c20-0.375 39.191-7.9727 54.027-21.387 14.84-13.418 24.324-31.746 26.711-51.605 2.2969-19.715-4.0156-39.461-17.324-54.184-13.309-14.723-32.32-22.992-52.164-22.691h-192.92c-13.398 0-25.777-7.1484-32.477-18.75-6.6992-11.602-6.6992-25.898 0-37.5 6.6992-11.602 19.078-18.75 32.477-18.75h637.5c13.398 0 25.777 7.1484 32.477 18.75 6.6992 11.602 6.6992 25.898 0 37.5-6.6992 11.602-19.078 18.75-32.477 18.75h-168.75c-26.793 0-51.555 14.293-64.953 37.5-13.395 23.207-13.395 51.793 0 75 13.398 23.207 38.16 37.5 64.953 37.5h93.75c9.9492-0.007812 19.492 3.9375 26.531 10.969s10.996 16.57 11 26.52c0 9.9453-3.9492 19.488-10.98 26.523zm-34.969-101.51h-85.312c-13.398 0-25.777-7.1484-32.477-18.75-6.6992-11.602-6.6992-25.898 0-37.5 6.6992-11.602 19.078-18.75 32.477-18.75h75.188c3.9766 25.105 7.3125 50.156 10.125 75z"/>
</svg>