<svg width="23pt" height="23pt" version="1.1" viewBox="0 0 1200 1200" xmlns="http://www.w3.org/2000/svg">
 <path d="m246.24 192.84c36.359 0 66-29.641 66-66s-29.641-66-66-66-66 29.641-66 66 29.641 66 66 66zm0-84c9.9609 0 18 8.0391 18 18 0 9.9609-8.0391 18-18 18-9.9609 0-18-8.0391-18-18 0-9.9609 8.043-18 18-18zm42 865.68c-36.359 0-66 29.641-66 66s29.641 66 66 66 66-29.641 66-66-29.637-66-66-66zm0 84c-9.9609 0-18-8.0391-18-18 0-9.9609 8.0391-18 18-18 9.9609 0 18 8.0391 18 18 0 9.9609-8.0391 18-18 18zm72-184.44c0 16.559-13.441 30-30 30-16.559 0-30-13.441-30-30s13.441-30 30-30c16.562 0 30 13.441 30 30zm625.08-90c0 16.559-13.441 30-30 30-16.559 0-30-13.441-30-30s13.441-30 30-30c16.559 0 30 13.441 30 30zm150.12 179.16c0 16.559-13.441 30-30 30s-30-13.441-30-30c0-16.559 13.441-30 30-30s30 13.441 30 30zm-120-848.28c0-16.559 13.441-30 30-30s30 13.441 30 30c0 16.559-13.441 30-30 30-16.562 0-30-13.441-30-30zm-961.2 55.078c0-16.559 13.441-30 30-30 16.559 0 30 13.441 30 30 0 16.559-13.441 30-30 30-16.559 0-30-13.438-30-30zm174 614.04c0 13.199-10.801 24-24 24h-36v36c0 13.199-10.801 24-24 24s-24-10.801-24-24v-36h-36c-13.199 0-24-10.801-24-24s10.801-24 24-24h36v-36c0-13.199 10.801-24 24-24s24 10.801 24 24v36h36c13.203 0 24 10.801 24 24zm781.08 273.72c0 13.199-10.801 24-24 24h-36v36c0 13.199-10.801 24-24 24-13.199 0-24-10.801-24-24v-36h-36c-13.199 0-24-10.801-24-24s10.801-24 24-24h36v-36c0-13.199 10.801-24 24-24 13.199 0 24 10.801 24 24v36h36c13.199 0 24 10.801 24 24zm150.12-418.92c0 13.199-10.801 24-24 24h-36v36c0 13.199-10.801 24-24 24-13.199 0-24-10.801-24-24v-36h-36c-13.199 0-24-10.801-24-24 0-13.199 10.801-24 24-24h36v-36c0-13.199 10.801-24 24-24 13.199 0 24 10.801 24 24v36h36c13.32 0 24 10.68 24 24zm-639.96-446.52c8.7617 9.8398 7.9219 25.078-1.9219 33.84-38.52 34.32-64.32 79.32-74.398 130.08-2.2812 11.398-12.359 19.32-23.52 19.32-1.5586 0-3.1211-0.12109-4.6797-0.48047-12.961-2.6406-21.48-15.238-18.84-28.199 12.238-61.078 43.199-115.2 89.52-156.48 9.8398-8.8789 24.961-8.0391 33.84 1.9219zm156.36 766.08c0.23828 1.5586 0.35938 3.1211 0.35938 4.6797 0 6.4805-2.3984 12.48-6.9609 17.039-2.2812 2.2812-4.9219 3.9609-7.8008 5.1602-2.8789 1.1992-6 1.8008-9.2383 1.8008-6.3594 0-12.359-2.3984-16.922-6.9609-4.5586-4.5586-6.9609-10.559-6.9609-17.039 0-6.3594 2.5195-12.48 6.9609-16.922 9-9 25.078-9 33.961 0 1.0781 1.0781 2.0391 2.2812 3 3.6016 0.83984 1.3203 1.5586 2.7617 2.1602 4.1992 0.60156 1.4414 1.082 3 1.4414 4.4414zm-46.68 46.438c9.9609 8.7617 11.039 23.879 2.2812 33.84-22.922 26.281-28.32 62.641-14.281 94.922 5.2812 12.121-0.23828 26.281-12.359 31.559-3.1211 1.3203-6.3594 2.0391-9.6016 2.0391-9.2383 0-18-5.3984-21.961-14.398-21.719-49.441-13.199-105.24 21.961-145.68 8.7617-9.9609 24-11.039 33.961-2.2812zm186.84-203.4c-27.719 26.398-35.641 66.121-20.281 101.16 23.52 53.762 11.398 114.6-31.078 155.16-4.6797 4.4414-10.559 6.6016-16.559 6.6016-6.3594 0-12.602-2.5195-17.398-7.4414-9.1211-9.6016-8.7617-24.84 0.71875-33.961 27.719-26.398 35.641-66.121 20.281-101.16-23.52-53.762-11.398-114.6 31.078-155.16 27.719-26.398 35.641-66.121 20.281-101.16-17.762-40.441-15.238-84.961 5.2812-121.8l-76.199-15.238c-21.359 26.16-26.281 60.48-12.238 92.398 23.52 53.762 11.398 114.6-31.078 155.16-27.719 26.398-35.641 66.121-20.281 101.16 0.71875 1.8008 1.5586 3.4805 2.1602 5.3984 4.8008 12.359-1.3203 26.281-13.68 31.078-2.8789 1.0781-5.7617 1.6797-8.6406 1.6797-9.6016 0-18.719-5.7617-22.32-15.359-0.48047-1.1992-0.96094-2.2812-1.4414-3.4805-23.52-53.762-11.398-114.72 31.078-155.16 27.719-26.398 35.641-66.121 20.281-101.16-17.762-40.441-15.238-84.961 5.2812-121.8l-76.199-15.238c-21 25.922-26.039 60.961-12.238 92.398 12.961 29.641 15.359 61.32 7.0781 91.801-2.8789 10.68-12.602 17.641-23.16 17.641-2.1602 0-4.1992-0.23828-6.3594-0.83984-12.84-3.4805-20.281-16.68-16.801-29.52 5.3984-19.801 3.8398-40.441-4.6797-59.879-17.762-40.441-15.238-84.961 5.2812-121.8l-57.719-11.52-21.602 108.24c-7.9219 39.719-30.961 74.039-64.68 96.48-25.199 16.801-54.238 25.559-83.879 25.559-9.9609 0-20.039-0.96094-30.121-3-39.719-7.9219-74.039-30.961-96.48-64.68s-30.48-74.16-22.559-113.88l19.559-97.559c5.0391-25.199 0-50.762-14.281-72.121-14.281-21.359-36-35.879-61.078-40.922-12.961-2.6406-21.48-15.238-18.84-28.199 2.6406-12.961 15.238-21.359 28.199-18.84 37.801 7.5586 70.32 29.398 91.68 61.441 21.359 32.039 28.922 70.441 21.359 108.24l-19.559 97.559c-5.3984 27.121 0 54.84 15.359 77.879 15.359 23.039 38.762 38.762 66 44.16 27.121 5.3984 54.84 0 77.879-15.359s38.762-38.762 44.16-66l21.602-108.24-43.199-8.6406c-61.68-12.359-102-71.52-90.121-132.12 0-0.12109 0.23828-1.0781 0.23828-1.1992 19.441-97.32 76.199-180.72 159.84-234.84 83.395-54.355 182.88-71.875 280.07-49.555 141.48 32.398 250.32 145.44 277.44 288.12 2.5195 12.961-6.1211 25.559-19.078 28.078-12.961 2.5195-25.559-6.1211-28.078-19.078-23.523-123.96-118.21-222.24-241.09-250.32-84.359-19.32-170.76-4.0781-243.36 42.84-72.602 46.922-121.92 119.52-138.84 204.24-6.9609 35.398 16.559 69.359 52.32 76.559l186.12 37.199 127.08 25.441h0.12109l178.8 35.762c17.398 3.4805 35.16 0 49.922-9.9609 14.879-9.9609 24.961-25.32 28.441-42.961 3.2383-16.801 5.1602-34.078 5.6406-51.359 0.35938-13.199 11.281-24 24.719-23.281 13.199 0.35937 23.641 11.52 23.281 24.719-0.60156 19.801-2.7617 39.602-6.4805 58.922-5.8789 30.359-23.16 56.52-48.719 73.801-19.086 12.723-41.047 19.441-63.484 19.441-7.5586 0-15.121-0.71875-22.68-2.2812l-38.762-7.8008c-21 25.922-26.039 60.961-12.238 92.398 23.52 53.762 11.277 114.61-31.082 155.16zm-260.4-44.641c-22.922 26.281-28.441 62.762-14.281 95.039 23.52 53.762 11.398 114.6-31.078 155.16-27.719 26.398-35.641 66.121-20.281 101.16 5.2812 12.121-0.23828 26.281-12.359 31.559-3.1211 1.3203-6.3594 2.0391-9.6016 2.0391-9.2383 0-18-5.3984-21.961-14.398-23.52-53.762-11.398-114.6 31.078-155.16 27.719-26.398 35.641-66.121 20.281-101.16-21.719-49.441-13.199-105.36 22.078-145.8 8.7617-9.9609 23.879-11.039 33.84-2.2812 10.082 8.6445 11.043 23.766 2.2852 33.844zm97.32-528.48c-16.199-3.2383-26.762-19.078-23.52-35.281 3.2383-16.199 19.078-26.762 35.281-23.52 16.199 3.2383 26.762 19.078 23.52 35.281-3.2422 16.199-19.082 26.762-35.281 23.52zm153 0c3.2383-16.199 19.078-26.762 35.281-23.52 16.199 3.2383 26.762 19.078 23.52 35.281-3.2383 16.199-19.078 26.762-35.281 23.52s-26.762-19.082-23.52-35.281zm-143.28 50.402c-5.5195-7.4414 1.4414-17.762 10.441-15.961l124.44 24.961c9 1.8008 11.398 13.922 3.4805 18.719-21.602 12.961-47.879 18.238-74.641 12.961-26.523-5.4023-48.844-20.402-63.723-40.68z"/>
</svg>