<svg
            width="23pt"
            height="23pt"
            version="1.1"
            viewBox="0 0 1200 1200"
            xmlns="http://www.w3.org/2000/svg"
          >
            <path d="m386.44 918.84c-1.6406-6.375-5.625-11.906-11.203-15.422l-24.469-15.75c-3.8906-2.4844-8.4375-3.9375-13.078-4.0781-3.2344-0.14062-6.75-0.32812-10.453-0.51562-52.078-2.625-139.31-7.0781-184.55 19.5-8.2969 4.8281-13.312 13.781-13.078 23.391v0.23438c0.23438 9.6094 5.6719 18.328 14.25 22.688 41.578 23.203 88.594 34.922 136.18 34.031 19.078 0 39.281-1.2188 62.203-2.5781l3.9375-0.23438h0.046875c5.2969-0.28125 10.406-2.2031 14.625-5.4375l19.781-15.188c8.5312-6.5156 12.234-17.578 9.3281-27.938zm-43.547 30.094-2.5781 0.14062c-71.016 4.2188-111.52 6.6094-173.53-23.672 40.312-17.109 116.53-13.219 158.86-11.109l9.4219 0.46875 21.609 13.922 2.1562 7.9219zm224.29-0.28125c-11.812 0-115.22 1.2188-115.22 43.781s103.41 43.781 115.22 43.781 115.22-1.2188 115.22-43.781c0-42.609-103.41-43.781-115.22-43.781zm0 56.25c-27.094 1.1719-54.094-3.0938-79.5-12.516 25.406-9.375 52.453-13.594 79.5-12.469 27.094-1.1719 54.188 3.0938 79.594 12.469-25.406 9.4219-52.5 13.688-79.594 12.516zm598.45-99.141-204-353.29c-3.6562-6.3281-9.3281-11.25-16.172-13.922v-133.03c3.1875-1.6406 6.1875-3.3281 8.9531-5.0625l0.046875-0.046875c6.0938-3.7031 8.9531-11.109 6.7969-17.953-2.1094-6.8438-8.625-11.344-15.797-10.922v-143.06c0-22.031-24.469-38.344-74.859-49.875h0.046875c-50.859-10.453-102.66-15.422-154.55-14.812-51.891-0.60938-103.69 4.3594-154.55 14.812-50.391 11.578-74.859 27.891-74.859 49.875v143.06c-7.0781-0.375-13.547 4.125-15.656 10.875-2.1094 6.7969 0.60938 14.109 6.6094 17.906 2.8594 1.8281 5.9062 3.6094 9.0469 5.25v155.06c-7.125-0.375-13.641 4.125-15.797 10.922-2.1094 6.7969 0.65625 14.203 6.75 17.953 2.8594 1.8281 5.9062 3.6094 9.0469 5.25v64.641l-160.31 8.0156c-13.078 0.70312-26.391 1.2656-39.281 1.8281-84.234 3.6094-163.82 7.0781-232.74 45.984h0.046875c-14.766 8.3906-24.047 23.953-24.375 40.922-0.32812 17.016 8.2969 32.906 22.734 41.859 64.641 39.984 176.68 38.391 258.47 37.312 6.8438-0.09375 13.406-0.1875 19.688-0.23438 7.125-0.14062 14.203 1.0312 20.906 3.5156 68.766 24.656 190.92 68.484 331.26 68.484 6 0 12.094-0.09375 18.234-0.28125-5.2969 9.9375-4.9688 21.984 0.84375 31.641 5.8125 9.7031 16.266 15.609 27.562 15.609h408c11.484 0 22.125-6.1406 27.844-16.125 5.7656-9.9375 5.7656-22.219 0.046874-32.156zm-251.48-362.81c-3.375 2.625-6.1875 5.8594-8.2969 9.5156l-17.625 30.516c-26.766 7.0312-54.047 12-81.562 14.766 12.094-24.609 15.797-52.453 10.547-79.359-4.9219-26.906-14.156-52.828-27.375-76.781 42.188-2.8594 83.906-10.641 124.31-23.109zm-242.68 61.781c-0.23437-0.23438-0.51562-0.42188-0.79687-0.60938-1.6406-1.2656-3.2344-2.625-4.7812-4.0312-33.188-31.312-36.328-103.31 50.203-213.32 86.438 110.02 83.297 182.02 50.062 213.24-1.4062 1.3125-2.8594 2.5312-4.3125 3.7031h-0.046874c-0.42188 0.32812-0.79688 0.60937-1.1719 0.98437-26.578 19.359-62.578 19.359-89.156 0.046876zm-80.953-356.34c39.469-10.312 80.25-14.906 121.08-13.547 40.781-1.3594 81.562 3.2344 121.08 13.547-38.625 10.172-78.516 14.719-118.45 13.547-14.297 0-28.453-0.375-42.234-1.0781-27.562-0.79688-54.938-5.0156-81.469-12.469zm-28.969 30h-0.046876c37.734 8.0156 76.078 12.703 114.66 13.969 11.484 0.5625 23.344 0.84375 35.438 0.84375h4.5c51.844 0.60938 103.69-4.3594 154.5-14.812 14.953-3.1406 29.531-7.875 43.547-14.016v120.94c-45.797 15.422-93.609 24.281-141.89 26.297-13.453-20.812-28.219-40.734-44.156-59.672-2.9531-3.5625-7.3594-5.625-12-5.625s-9.0469 2.0625-12 5.625c-16.031 18.984-30.844 39-44.344 59.906-48.281-1.6875-96.094-10.547-141.79-26.25v-121.22 0.046875c14.016 6.1406 28.594 10.828 43.547 13.969zm15.328-71.156h-0.046874c45.891-8.5312 92.531-12.609 139.22-12.188 46.641-0.42188 93.281 3.6562 139.18 12.188 38.578 7.9219 53.859 16.969 58.078 21.188v0.046875c-12 8.6719-25.781 14.531-40.312 17.109-2.3906-20.062-30.562-28.266-55.219-33.234-35.016-6.2812-70.594-9.2344-106.17-8.8125-35.625-0.375-71.156 2.5781-106.22 8.8594-23.672 4.7344-50.578 12.516-54.797 30.797-11.531-2.5312-22.406-7.5469-31.781-14.719 4.125-4.2188 19.453-13.266 58.031-21.188zm65.344 234.61h-0.046874c-13.125 23.859-22.312 49.688-27.234 76.453-5.2969 27.047-1.5469 55.078 10.734 79.781-36.797-3.1406-72.984-11.016-107.72-23.391v-155.76c40.359 12.516 82.031 20.203 124.22 22.969zm13.828 190.22h-0.046876c36.516 24.281 84.094 24.188 120.52-0.28125 30.281-1.9219 60.422-5.8125 90.234-11.625l-74.391 129c-24.141 2.1562-49.734 3.2812-76.219 3.2812-122.63 0-190.18-22.688-198.14-34.453v-109.92c44.859 13.641 91.172 21.703 138 24.047zm-293.68 177.1c-10.172-3.7031-20.906-5.5312-31.688-5.3438-6.3281 0.046875-12.938 0.14062-19.828 0.23438-73.547 1.0312-184.69 2.5781-241.55-32.625h-0.046875c-5.0625-3.0938-8.1094-8.6719-8.0156-14.625s3.375-11.391 8.5312-14.344c62.344-35.203 138.28-38.484 218.68-42 12.938-0.5625 26.391-1.125 39.609-1.8281l158.63-7.9219v35.344c0 6.0469 3.5156 11.578 9 14.156 7.5 8.1094 25.922 20.906 76.688 31.125 47.438 8.6719 95.531 12.844 143.76 12.422 19.641 0 38.766-0.60938 57.234-1.7344l-53.484 92.625c-150 8.8594-284.58-39.328-357.52-65.484zm776.11 113.16c-0.28125 0.46875-0.32813 0.46875-0.75 0.46875h-408c-0.42188 0-0.46875 0-0.75-0.46875s-0.23438-0.46875 0-0.89062l204-353.29c0.28125-0.46875 0.32812-0.46875 0.75-0.46875 0.42187 0 0.46875 0 0.75 0.46875l204 353.29c0.28125 0.42188 0.28125 0.46875 0.046874 0.89062zm-199.45-273.42h-10.641c-9.2344 0.14062-18.047 4.125-24.281 10.969-7.3594 8.0625-11.062 18.75-10.219 29.578l8.3906 112.36v0.046875c0.375 15.516 12.656 28.078 28.172 28.781h5.1094c15.328-0.70312 27.562-13.031 28.078-28.406l9.8906-112.59c0.98438-10.781-2.625-21.516-9.8906-29.531-6.2812-6.9844-15.188-11.062-24.609-11.203zm-6 144.24-7.8281-105.98c-0.42188-2.7656 0.89062-5.5312 3.2812-6.9375h10.547c2.4375 1.2656 3.7969 3.9844 3.375 6.7031zm0.70313 42.844v-0.046875c-14.438 0-27.469 8.7188-33 22.078s-2.4844 28.734 7.7344 38.953 25.594 13.266 38.953 7.7344c13.359-5.5312 22.078-18.562 22.078-33.047 0-9.4688-3.7969-18.562-10.5-25.266-6.7031-6.7031-15.797-10.453-25.266-10.453zm0 40.172v-0.046875c-1.7812 0-3.375-1.0781-4.0781-2.7188-0.70312-1.6875-0.32812-3.6094 0.9375-4.875 1.2656-1.2656 3.1875-1.6406 4.875-0.9375 1.6406 0.65625 2.7188 2.2969 2.7188 4.0781 0 2.4844-2.0156 4.4531-4.4531 4.4531z" />
          </svg>