<svg width="23pt" height="23pt" version="1.1" viewBox="0 0 1200 1200" xmlns="http://www.w3.org/2000/svg">
 <path d="m1133.3 800.68c-2.3438 0-4.8281-0.51562-6.9844-1.5l-83.672-39.328c-35.672-16.828-75.984-19.312-113.34-7.3125l-94.172 30.188c-38.484 12.328-78.984 12.188-117.19-0.65625l-92.156-30.656c-34.172-11.344-71.484-10.5-105.19 2.4844l-51.656 20.016c-47.016 18.188-98.344 17.016-144.52-3.5156l-24.516-10.828c-37.312-16.5-78.984-17.812-117.33-3.3281l-110.16 41.344c-8.4844 3.1875-18.188-1.1719-21.516-9.8438-3.1875-8.6719 1.1719-18.188 9.8438-21.516l110.16-41.344c46.5-17.484 96.984-15.984 142.5 4.1719l24.516 10.828c38.016 16.828 80.156 17.812 118.83 2.8125l51.656-20.016c40.828-15.844 86.156-16.828 127.69-3l92.156 30.656c31.5 10.5 64.828 10.688 96.516 0.51562l94.172-30.188c45.516-14.672 94.5-11.484 137.81 8.8125l83.672 39.328c8.3438 3.9844 11.812 13.828 8.0156 22.172-2.8125 6-8.8125 9.5156-15.188 9.5156z"/>
 <path d="m1133.3 930.84c-2.3438 0-4.8281-0.51562-7.1719-1.5l-83.672-39.328c-35.672-16.688-75.844-19.312-113.34-7.3125l-94.172 30.188c-38.344 12.328-78.844 12.188-117.19-0.65625l-92.156-30.844c-34.172-11.344-71.484-10.5-105 2.4844l-51.656 20.016c-47.016 18.188-98.344 17.016-144.52-3.5156l-24.656-10.828c-37.312-16.5-78.984-17.672-117.19-3.3281l-110.16 41.344c-8.4844 3.1875-18.188-1.1719-21.516-9.8438-3.1875-8.6719 1.1719-18.188 9.8438-21.516l110.16-41.344c46.5-17.344 96.984-15.984 142.31 4.1719l24.656 10.828c37.312 16.5 80.812 17.484 118.83 2.8125l51.656-20.016c40.828-15.844 86.156-16.828 127.69-3l92.156 30.844c31.5 10.5 64.828 10.688 96.516 0.51562l94.172-30.188c45.516-14.672 94.5-11.484 137.81 8.8125l83.672 39.328c8.3438 3.9844 11.812 13.828 8.0156 22.172-2.8125 6-8.8125 9.5156-15.188 9.5156z"/>
 <path d="m1133.3 1061c-2.3438 0-4.8281-0.51562-6.9844-1.5l-83.484-39.328c-35.672-16.828-75.984-19.312-113.67-7.3125l-93.984 30.188c-38.484 12.328-78.984 12.188-117.19-0.65625l-92.156-30.656c-34.172-11.344-71.484-10.5-105 2.4844l-51.656 20.016c-47.016 18.188-98.344 17.016-144.52-3.3281l-24.516-10.828c-37.312-16.5-78.984-17.812-117.33-3.3281l-110.16 41.344c-8.4844 3.1875-18.188-1.1719-21.516-9.8438s1.1719-18.188 9.8438-21.516l110.16-41.344c46.5-17.484 96.984-15.984 142.5 4.1719l24.516 10.828c38.016 16.828 80.156 17.812 118.83 2.8125l51.656-20.016c40.828-15.844 86.156-16.828 127.69-3l92.156 30.656c31.5 10.5 64.828 10.688 96.516 0.51562l93.984-30.188c45.656-14.672 94.688-11.484 138 8.8125l83.484 39.328c8.3438 3.9844 11.812 13.828 8.0156 22.172-2.8125 6-8.8125 9.5156-15.188 9.5156z"/>
 <path d="m495.19 519.84h-279.84c-17.672 0-33.844-9-42.984-24.188-9.1875-15.188-9.9844-33.516-2.0156-49.312l142.64-279.84c8.6719-17.156 26.016-27.516 45.328-27.516 19.172 0 36.516 11.016 45 28.312l137.16 279.84c7.6875 15.844 6.8438 33.984-2.4844 48.984-9.3281 14.812-25.312 23.812-42.844 23.812zm-137.21-347.53c-6.5156 0-12.328 3.5156-15.328 9.3281l-142.64 279.84c-3.9844 7.6875-0.84375 14.344 0.65625 16.828 1.5 2.4844 6 8.1562 14.672 8.1562l279.84 0.046874c8.6719 0 12.984-5.6719 14.484-8.1562 1.5-2.4844 4.6875-9 0.84375-16.688l-137.02-279.84c-3-6-8.6719-9.5156-15.328-9.6562z"/>
 <path d="m355.18 388.18c-8.6719 0-15.844-6.6562-16.688-15.188l-8.0156-92.484c-0.32812-4.6875 1.1719-9.3281 4.3125-12.656 3.1875-3.5156 7.6875-5.3438 12.328-5.3438h15.984c4.6875 0 9.1875 2.0156 12.328 5.3438 3.1875 3.5156 4.6875 8.0156 4.3125 12.656l-8.0156 92.484c-0.65625 8.6719-8.0156 15.188-16.688 15.188z"/>
 <path d="m355.18 433.69c-9.1875 0-17.156-7.5-17.156-16.688s6.9844-16.688 16.172-16.688h0.51562c9.1875 0 16.828 7.5 16.828 16.688s-7.1719 16.688-16.5 16.688z"/>
 <path d="m806.48 789.19c-3.5156 0-7.1719-1.1719-10.172-3.5156-7.3125-5.6719-8.6719-15.984-3-23.344l89.016-115.83c17.672-23.016 31.172-49.5 39.984-78.656 8.6719-28.312 17.484-55.828 26.484-82.172l-47.016-36.188c-24.328 16.688-49.5 33.188-75 48.656-24.656 14.812-46.172 34.5-64.312 58.172l-140.81 183.32c-5.6719 7.3125-16.172 8.6719-23.344 3-7.3125-5.6719-8.6719-15.984-3-23.344l140.81-183.32c20.672-27 45.328-49.172 73.312-66.328 28.5-17.344 56.484-35.812 83.156-54.516 6-4.1719 14.016-3.9844 19.688 0.51562l66.188 50.812c5.6719 4.3125 8.0156 11.812 5.6719 18.656-10.172 29.344-20.344 60.328-30 92.156-9.9844 33-25.312 63-45.328 89.344l-89.016 115.83c-3.3281 4.3125-8.1562 6.5156-13.172 6.5156z"/>
 <path d="m979.5 502.31c-6 0-11.672-2.0156-16.5-5.6719l-75.656-58.172c-12-9.1875-14.156-26.344-5.0156-38.156l17.484-22.828c4.5-5.8125 10.828-9.5156 18-10.5 7.3125-0.84375 14.344 0.98438 20.156 5.3438l75.656 58.172c12 9.1875 14.156 26.344 5.0156 38.156l-17.484 22.828c-4.5 5.8125-10.828 9.5156-18 10.312-1.1719 0-2.4844 0.1875-3.6562 0.1875zm-67.172-86.484 66.188 50.672 10.172-13.172-66.188-50.672z"/>
 <path d="m806.48 789.19c-3.5156 0-7.1719-1.1719-10.172-3.5156-7.3125-5.6719-8.6719-15.984-3-23.344l28.828-37.5-118.83-91.312-40.688 52.828 94.5 72.516c7.3125 5.6719 8.6719 15.984 3.1875 23.344-5.4844 7.3125-15.984 8.6719-23.344 3.1875l-107.81-82.688c-3.5156-2.6719-5.8125-6.6562-6.3281-11.016-0.51562-4.3125 0.65625-8.8125 3.3281-12.328l60.984-79.312c5.6719-7.3125 15.984-8.6719 23.344-3l145.31 111.66c3.5156 2.6719 5.8125 6.6562 6.3281 11.016 0.51562 4.3125-0.65625 8.8125-3.3281 12.328l-39 50.672c-3.3281 4.3125-8.1562 6.5156-13.172 6.5156z"/>
</svg>