<svg width="23pt" height="23pt" version="1.1" viewBox="0 0 1200 1200" xmlns="http://www.w3.org/2000/svg">
 <path d="m578.44 111.52h-52.641v-63.328h52.641zm-130.6 195.28h208.55c13.781 0 25.078-11.25 25.078-25.078v-208.5c0-13.781-11.25-25.078-25.078-25.078h-46.031v79.312c0 8.8125-7.1719 15.938-15.938 15.938h-84.562c-8.8125 0-15.938-7.1719-15.938-15.938v-79.312h-46.031c-13.781 0-25.078 11.25-25.078 25.078v208.5c0 13.781 11.25 25.078 25.078 25.078zm448.45-258.61h-52.641v63.328h52.641zm-130.6 258.66h208.55c13.781 0 25.078-11.25 25.078-25.078l-0.046874-208.55c0-13.781-11.25-25.078-25.078-25.078h-46.031v79.312c0 8.8125-7.1719 15.938-15.938 15.938h-84.562c-8.8125 0-15.938-7.1719-15.938-15.938v-79.312h-46.031c-13.781 0-25.078 11.25-25.078 25.078v208.5c0 13.781 11.25 25.078 25.078 25.078zm-620.44 548.9c-9.3281-9.3281-24.891-9.3281-34.266 0l-69.234 69.234 226.87 226.87 69.234-69.234c9.4219-9.4219 9.4219-24.797 0-34.266zm1007.6-92.156c-11.672-12.516-37.219-10.266-50.625-2.5312-37.781 21.797-56.016 32.672-127.87 64.5-49.359 21.844-136.64 60.562-194.34 69.938-13.312 2.1562-27.469 3.3281-42.094 3.7031-70.969 1.7344-154.08-15.656-187.74-33.188-8.1562-4.2656-11.344-14.297-7.125-22.453 4.2656-8.1562 14.297-11.344 22.453-7.125 30.094 15.656 105.84 31.172 171.61 29.578 22.922-0.5625 78.703-3.7969 94.406-30.281 3.9844-6.7031 5.625-13.781 5.3906-20.578-0.46875-12.75-7.7344-24.891-18.703-31.406-6.9375-4.125-24.422-11.484-40.219-12.188-15.562-0.70313-31.312-1.6406-37.688-2.1562-92.953-8.0625-159.28-35.578-215.48-58.875-80.391-33.328-152.29-28.453-220.74 24.047-28.734 22.031-54.891 58.078-124.5 108.42l173.44 173.44c30.422-14.109 62.203-21.703 95.25-25.266 36.281-3.8906 73.828-2.9531 112.69-0.65625 18 1.0781 35.25 2.4844 53.016 3.8906 42.328 3.4219 87.562 7.0781 128.95 6.1406 40.828-0.89062 73.688-6.8438 105.23-17.344 31.781-10.547 62.906-25.969 99.797-45.469 38.156-20.203 116.06-64.547 165.74-103.55 14.625-11.484 26.812-22.5 34.828-32.297 7.875-10.359 10.547-19.922 9.3281-27.703-0.60938-4.0781-2.3906-7.6875-5.1094-10.547zm-97.641-399.28h-52.641v63.328h52.641zm77.906 0h-46.031v79.312c0 8.8125-7.1719 15.938-15.938 15.938h-84.562c-8.8125 0-15.938-7.1719-15.938-15.938v-79.312h-46.031c-13.781 0-25.078 11.25-25.078 25.078v208.55c0 13.781 11.25 25.078 25.078 25.078h208.55c13.781 0 25.078-11.25 25.078-25.078v-208.55c0-13.781-11.25-25.078-25.078-25.078zm-395.76 0h-52.641v63.328h52.641zm-130.6 0c-13.781 0-25.078 11.25-25.078 25.078v208.55c0 13.781 11.25 25.078 25.078 25.078h208.55c13.781 0 25.078-11.25 25.078-25.078v-208.55c0-13.781-11.25-25.078-25.078-25.078h-46.031v79.312c0 8.8125-7.1719 15.938-15.938 15.938h-84.562c-8.8125 0-15.938-7.1719-15.938-15.938v-79.312zm-187.26 0h-52.641v63.328h52.641zm-130.6 258.66h208.55c13.781 0 25.078-11.25 25.078-25.078v-208.55c0-13.781-11.25-25.078-25.078-25.078h-46.031v79.312c0 8.8125-7.1719 15.938-15.938 15.938h-84.562c-8.8125 0-15.938-7.1719-15.938-15.938v-79.312h-46.031c-13.781 0-25.078 11.25-25.078 25.078v208.55c0 13.781 11.25 25.078 25.078 25.078z"/>
</svg>