<svg width="23pt" height="23pt" version="1.1" viewBox="0 0 1200 1200" xmlns="http://www.w3.org/2000/svg">
 <path d="m751.97 877.26c-31.172 0-62.625-8.6719-91.266-31.688-62.812-50.578-80.625-150.79-42.281-238.26 37.875-86.438 118.45-136.08 222.14-139.87-11.297-11.203-24.75-23.109-40.172-34.359-67.031-48.797-138.66-62.438-212.86-40.594-179.39 52.734-219.74 168.79-255.42 271.26-37.078 106.5-75.422 216.66-273.56 171.42-16.078-3.6562-26.156-19.688-22.5-35.766s19.734-26.109 35.766-22.5c146.11 33.328 166.6-25.688 203.86-132.79 36.375-104.48 86.156-247.55 294.98-308.95 92.391-27.188 184.6-9.5625 266.68 50.906 60.562 44.625 94.219 96.938 95.625 99.141l35.156 55.266-64.781-9.6562c-157.69-23.531-213.47 62.438-230.16 100.5-26.812 61.219-15.797 134.9 25.031 167.76 41.438 33.328 108.98 20.672 185.44-34.688 8.0156-7.5469 21.469-17.719 44.109-32.812 36.469-24.328 70.453-40.641 100.97-48.562 59.25-15.328 106.22 1.9688 132.24 48.797 8.0156 14.438 2.8125 32.625-11.625 40.641s-32.625 2.8125-40.641-11.625c-7.3125-13.219-16.734-20.438-29.672-22.734-44.156-7.875-114.66 38.625-147.37 64.219v1.0781l-12.328 8.9531c-32.484 23.531-99.234 64.922-167.34 64.922z"/>
</svg>