<svg width="24pt" height="24pt" version="1.1" viewBox="0 0 1200 1200" xmlns="http://www.w3.org/2000/svg">
 <path d="m605.11 744.79c-9.9375 0-18-8.0625-18-18s8.0625-18 18-18l173.11 0.14062c21.516 1.2656 42.516-3.375 60.938-12.891 18.703-9.6562 34.828-24.375 46.312-43.031l0.70313-1.0312c11.062-18.375 16.688-39.047 16.875-59.719 0.1875-21.375-5.5781-42.75-16.5-61.078-11.156-18.797-27.094-33.797-45.656-43.781s-39.891-15-61.734-13.875c-9.8906 0.46875-18.328-7.1719-18.797-17.062-0.14063-3.1406 0.51562-6.1875 1.8281-8.8125 10.5-23.25 12.562-48.609 7.0781-72.234-5.4844-23.672-18.656-45.703-38.578-61.969-19.922-16.312-44.062-24.891-68.391-25.594-24.328-0.70312-48.984 6.4219-69.797 21.562-8.0156 5.8125-19.312 4.0312-25.078-4.0312-0.9375-1.3125-1.6406-2.6719-2.2031-4.0781-13.031-28.125-32.766-51.188-56.578-68.016l-0.14063-0.09375-0.23437-0.14062-0.375-0.23438c-9.8906-6.9375-20.484-12.75-31.547-17.484-38.297-16.172-82.594-18.516-124.6-3.5156-5.2969 1.6875-10.875 4.2656-15.938 6.5625-8.9531 4.2188-19.688 0.375-23.906-8.5781s-0.375-19.688 8.5781-23.906c6.5625-2.9062 12.562-5.2969 19.172-7.9688 50.719-18.094 104.2-15.281 150.61 4.3594 5.3906 2.2969 10.688 4.7812 15.891 7.5 6.6094-22.734 17.625-43.969 32.438-62.391l0.375-0.46875c20.062-24.797 46.969-44.578 78.891-55.969 43.688-15.609 89.812-13.172 129.84 3.75 34.125 14.438 63.844 39.469 83.812 72.797 19.5-9.8438 40.922-14.438 62.156-13.828 27.891 0.79688 55.547 10.594 78.234 29.156 22.688 18.609 37.734 43.781 44.062 70.969 4.4062 19.078 4.5 39.188-0.09375 58.781 15.609 2.2031 30.562 7.1719 44.25 14.531 21 11.25 39 28.219 51.656 49.5 12.562 21.234 18.75 45.141 18.562 69.047-0.23438 23.906-6.7969 47.766-19.734 68.766-12.938 21.047-31.266 37.641-52.453 48.609-20.859 10.781-44.625 16.031-68.906 14.625h-54.047c2.5781 11.484 3.7969 23.25 3.7031 34.922-0.23438 27.094-7.5938 54.094-22.078 78.094l-0.70312 1.2188c-14.906 24.281-36.047 43.453-60.516 56.062-24.141 12.422-51.609 18.516-79.641 16.828zm65.391 106.83c-6.2812 7.6406-17.625 8.7656-25.266 2.4375-7.6406-6.2812-8.7656-17.625-2.4375-25.266l40.875-49.547c6.2812-7.6406 17.625-8.7656 25.266-2.4375 7.6406 6.2812 8.7656 17.625 2.4375 25.266zm-190.13 226.55c-2.5312 9.5625-12.422 15.281-21.984 12.75-5.7188-1.5469-10.078-5.6719-12.094-10.781-8.1094 3.1875-17.578 0.046875-22.031-7.7344-4.5-7.7812-2.5312-17.578 4.3125-23.016-3.4219-4.3125-4.8281-10.125-3.2812-15.797 2.5312-9.5625 12.422-15.281 21.984-12.75l20.719 5.5312 20.062-11.578c-3.5625-5.7656-3.5625-13.172 0-18.891l-18.703-10.781-20.766 5.5781c-9.5625 2.5312-19.453-3.1406-21.984-12.75-1.5-5.6719-0.14062-11.438 3.2344-15.703-7.7344-5.2031-10.266-15.609-5.5781-23.812 4.7344-8.25 15.047-11.297 23.438-7.125 2.0625-5.0625 6.3281-9.1406 12.047-10.641 9.5625-2.5312 19.453 3.1406 21.984 12.75l5.5781 20.719 18.703 10.781c3.1875-6 9.5625-9.6562 16.312-9.4688v-21.703l-15.141-15.141c-6.9844-7.0312-6.9375-18.375 0.09375-25.406 4.125-4.0781 9.75-5.7656 15.094-5.0625 0.60938-9.375 8.4375-16.828 17.953-16.828s17.297 7.4062 17.953 16.781c5.3906-0.75 11.062 0.9375 15.188 5.1094 7.0312 7.0312 7.0312 18.422 0 25.453l-15.141 15.141v21.609c6.7969-0.1875 13.172 3.5156 16.359 9.4688l18.703-10.781 5.5312-20.672c2.5312-9.5625 12.422-15.281 21.984-12.75 5.6719 1.5 9.9844 5.5781 12 10.594 8.3906-4.125 18.703-1.0781 23.438 7.125 4.7812 8.25 2.25 18.703-5.5312 23.906 3.3281 4.3125 4.6875 10.031 3.1875 15.703-2.5312 9.5625-12.422 15.281-21.984 12.75l-20.719-5.5781-18.75 10.828c3.5625 5.7656 3.5625 13.125 0 18.844l18.75 10.828 20.719-5.5312c9.5625-2.5312 19.453 3.1406 21.984 12.75 1.5 5.6719 0.14062 11.391-3.1875 15.703 7.7812 5.2031 10.266 15.656 5.5312 23.906-4.7344 8.2031-15.047 11.25-23.438 7.125-2.0625 5.0625-6.3281 9.1406-12 10.641-9.5625 2.5312-19.453-3.1406-21.984-12.75l-5.5312-20.672-18.75-10.828c-3.2344 6-9.5625 9.6094-16.312 9.4219v21.703l15.141 15.094c7.0312 7.0312 7.0312 18.422 0 25.453-4.125 4.125-9.7969 5.8125-15.188 5.1094-0.65625 9.375-8.4375 16.781-17.953 16.781s-17.344-7.4062-17.953-16.828c-5.3438 0.75-10.969-0.9375-15.094-5.0625-7.0312-6.9844-7.0781-18.375-0.09375-25.406l15.141-15.141v-21.656c-6.7969 0.1875-13.172-3.5156-16.359-9.4688l-19.969 11.531-5.5781 20.719zm66.141-83.578c-5.5312 1.3125-6.9844 1.3125-12.516 0-1.7344 5.4844-2.2969 6.5625-6.2344 10.734 3.9375 4.1719 4.5938 5.2969 6.2344 10.734 5.4844-1.2656 6.6562-1.3594 12.516 0 1.5938-5.2031 2.3438-6.6094 6.2344-10.734-3.9375-4.1719-4.5938-5.2969-6.2344-10.734zm-188.16-142.97c-6.2812 7.6406-17.625 8.7656-25.266 2.4375-7.6406-6.2812-8.7656-17.625-2.4375-25.266l40.875-49.547c6.2812-7.6406 17.625-8.7656 25.266-2.4375 7.6406 6.2812 8.7656 17.625 2.4375 25.266zm-264.98 90.844c-7.0312 7.0312-18.422 7.0312-25.453 0-4.1719-4.1719-5.8594-9.8438-5.0625-15.234-9.3281-0.65625-16.688-8.3906-16.688-17.906 0-9.4688 7.4062-17.25 16.688-17.906-0.75-5.4375 0.9375-11.109 5.0625-15.234 7.0312-7.0312 18.422-7.0312 25.453 0l15.188 15.188h21.562c-0.23438-6.8438 3.5156-13.219 9.5156-16.453l-10.781-18.656-20.766-5.5781c-9.5625-2.5312-15.281-12.422-12.75-21.984 1.5-5.6719 5.5781-9.9844 10.688-12.047-4.125-8.3906-1.0781-18.703 7.125-23.438 8.2031-4.6875 18.609-2.2031 23.812 5.5781 4.3125-3.375 10.078-4.7344 15.703-3.2344 9.5625 2.5312 15.281 12.422 12.75 21.984l-5.5781 20.766 10.781 18.703c5.8125-3.6094 13.219-3.5625 18.938 0l10.781-18.703-5.5312-20.719c-2.5312-9.5625 3.1406-19.453 12.75-21.984 5.6719-1.5 11.391-0.14062 15.703 3.1875 5.2031-7.7812 15.656-10.312 23.906-5.5312 8.2031 4.7344 11.25 15.047 7.125 23.438 5.0625 2.0625 9.0938 6.375 10.594 12 2.5312 9.5625-3.1406 19.453-12.75 21.984l-20.672 5.5312-10.828 18.75c6 3.2344 9.6562 9.6094 9.4219 16.406h21.656l15.141-15.141c6.9844-7.0312 18.375-7.0781 25.406-0.09375 4.1719 4.125 5.8594 9.8438 5.1094 15.234 9.3281 0.60938 16.734 8.3906 16.734 17.906s-7.4062 17.297-16.734 17.906c0.75 5.4375-0.9375 11.109-5.1094 15.281-7.0312 6.9844-18.375 6.9375-25.406-0.09375l-15.141-15.141h-21.609c0.23438 6.8438-3.4688 13.172-9.4688 16.406l10.828 18.703 20.672 5.5312c9.5625 2.5312 15.281 12.422 12.75 21.984-1.5 5.6719-5.5781 9.9844-10.594 12 4.125 8.3906 1.0781 18.703-7.125 23.438-8.25 4.7812-18.703 2.25-23.906-5.5312-4.3125 3.3281-10.031 4.6875-15.703 3.1875-9.5625-2.5312-15.281-12.422-12.75-21.984l5.5781-20.719-10.828-18.75c-5.7656 3.5625-13.125 3.5625-18.844 0l-10.828 18.75 5.5781 20.719c2.5312 9.5625-3.1406 19.453-12.75 21.984-5.6719 1.5-11.391 0.14062-15.703-3.1875-5.2031 7.7812-15.656 10.312-23.906 5.5312-8.2031-4.7344-11.25-15.047-7.125-23.438-5.0625-2.0625-9.0938-6.375-10.594-12-2.5312-9.5625 3.1406-19.453 12.75-21.984l20.672-5.5312 10.828-18.75c-6-3.2344-9.6562-9.6094-9.4219-16.359h-21.562l-15.234 15.234zm86.766-20.672c4.125-3.9375 5.2031-4.5 10.734-6.2344l-0.42188-1.875c-0.70312-2.6719-0.75-5.5781-0.09375-8.4844l0.51562-2.1562c-5.6719-1.7344-6.2812-2.0625-10.734-6.1875-3.9844 3.7031-5.4844 4.5-10.734 6.1875 1.2656 5.4375 1.2188 7.2188 0 12.516 5.2031 1.5938 6.6094 2.3438 10.734 6.2344zm604.64-142.55c6.2812-7.6406 17.625-8.7656 25.266-2.4375 7.6406 6.2812 8.7656 17.625 2.4375 25.266l-99.516 120.66c-6.2812 7.6406-17.625 8.7656-25.266 2.4375-7.6406-6.2812-8.7656-17.625-2.4375-25.266zm88.922 93.422c-9.9375 0-18-8.0625-18-18s8.0625-18 18-18h0.28125c9.9375 0 18 8.0625 18 18s-8.0625 18-18 18zm-130.08 107.48c-9.9375 0-18-8.0625-18-18s8.0625-18 18-18h70.125c9.9375 0 18 8.0625 18 18s-8.0625 18-18 18zm133.87-160.03c-9.9375 0-18-8.0625-18-18s8.0625-18 18-18h109.97c9.5625 0 18.234-3.8438 24.469-10.078s10.078-14.859 10.078-24.469c0-9.5625-3.8438-18.234-10.078-24.469s-14.859-10.078-24.469-10.078c-9.5156 0-18.188 3.8906-24.422 10.125l-0.79688 0.75c-5.7656 6.1406-9.3281 14.438-9.3281 23.672 0 9.9375-8.0625 18-18 18s-18-8.0625-18-18c0-18.844 7.4531-36.047 19.594-48.703l1.0312-1.125c12.75-12.75 30.422-20.672 49.875-20.672s37.031 7.9219 49.828 20.672c12.797 12.844 20.719 30.469 20.719 49.875 0 19.453-7.9219 37.031-20.672 49.828-12.844 12.797-30.422 20.719-49.875 20.719h-109.97zm-87.141 105.09c-9.9375 0-18-8.0625-18-18s8.0625-18 18-18h137.06c19.406 0 37.031 7.9219 49.828 20.719 12.797 12.703 20.719 30.375 20.719 49.828s-7.9219 37.031-20.672 49.828c-12.844 12.797-30.422 20.719-49.875 20.719s-37.125-7.9219-49.875-20.672-20.672-30.422-20.672-49.875c0-9.9375 8.0625-18 18-18s18 8.0625 18 18c0 9.5156 3.8906 18.188 10.125 24.422s14.859 10.125 24.422 10.125 18.234-3.8438 24.469-10.078 10.078-14.859 10.078-24.469c0-9.5156-3.8906-18.188-10.125-24.422-6.1875-6.2812-14.859-10.125-24.422-10.125zm141.24-52.547c-9.9375 0-18-8.0625-18-18s8.0625-18 18-18h155.9c19.453 0 37.031 7.9219 49.828 20.672 12.797 12.844 20.719 30.469 20.719 49.875 0 19.453-7.9219 37.031-20.672 49.828-12.844 12.797-30.422 20.719-49.875 20.719s-37.125-7.9219-49.875-20.672-20.672-30.422-20.672-49.875c0-9.9375 8.0625-18 18-18s18 8.0625 18 18c0 9.5156 3.8906 18.188 10.125 24.422s14.859 10.125 24.422 10.125 18.234-3.8438 24.469-10.078 10.078-14.859 10.078-24.469c0-9.5625-3.8438-18.234-10.078-24.469s-14.859-10.078-24.469-10.078zm-469.92-21.047c-6.2812 7.6406-17.625 8.7656-25.266 2.4375-7.6406-6.2812-8.7656-17.625-2.4375-25.266l6.4688-7.875c6.2812-7.6406 17.625-8.7656 25.266-2.4375 7.6406 6.2812 8.7656 17.625 2.4375 25.266zm-135.84 164.68c-6.2812 7.6406-17.625 8.7656-25.266 2.4375-7.6406-6.2812-8.7656-17.625-2.4375-25.266l99.516-120.66c6.2812-7.6406 17.625-8.7656 25.266-2.4375 7.6406 6.2812 8.7656 17.625 2.4375 25.266zm212.21-805.87c20.203 15.891 37.594 35.719 51 58.875 23.203-12.328 48.891-18.094 74.344-17.344 32.156 0.9375 64.031 12.234 90.188 33.609 26.156 21.422 43.547 50.438 50.812 81.797 5.3438 23.109 5.2031 47.531-0.98437 71.156 19.266 2.2969 37.734 8.2031 54.562 17.203 24.234 13.031 45 32.578 59.578 57.141 1.6875 2.8594 3.2812 5.7656 4.7812 8.7188l69.188 0.09375c17.719 0.98438 35.016-2.8125 50.25-10.641 15.422-7.9688 28.781-20.109 38.25-35.531 9.5156-15.469 14.344-32.859 14.484-50.203 0.14062-17.391-4.4062-34.875-13.641-50.438-9.2344-15.562-22.359-27.938-37.734-36.188-15.328-8.25-32.953-12.375-51-11.484-9.8906 0.46875-18.328-7.1719-18.797-17.062-0.14062-3.1406 0.51563-6.1406 1.8281-8.8125 8.625-19.125 10.312-40.078 5.8125-59.578-4.5-19.547-15.422-37.688-31.828-51.141-16.453-13.453-36.375-20.578-56.438-21.141s-40.406 5.3438-57.609 17.812c-8.0156 5.8125-19.312 4.0312-25.078-4.0312-0.9375-1.3125-1.6406-2.6719-2.2031-4.0781-15.469-33.328-42.328-58.078-73.969-71.484-31.922-13.5-68.812-15.422-103.83-2.9062-25.594 9.1406-47.062 24.844-63 44.578l-0.375 0.46875c-14.109 17.578-24 38.391-28.594 60.516zm163.31 264.14c7.8281-6.0938 19.125-4.6875 25.266 3.1406 6.0938 7.8281 4.6875 19.125-3.1406 25.266-22.125 17.203-47.484 27.797-73.547 31.922l-28.922 35.766h55.172c9.9375 0 18 8.0625 18 18 0 5.5312-2.4844 10.453-6.4219 13.781l-188.81 182.58c-7.125 6.8438-18.516 6.6562-25.406-0.51563-5.5781-5.8125-6.4688-14.438-2.7656-21.141l54.141-104.34h-64.828c-9.9375 0-18-8.0625-18-18 0-4.8281 1.9219-9.1875 4.9688-12.422l94.031-115.12c-12.141-7.4062-23.531-16.547-33.703-27.375-6.7969-7.2188-6.4219-18.609 0.79688-25.406 7.2188-6.7969 18.609-6.4219 25.406 0.79688 22.078 23.484 51.328 36.703 81.328 39 30.094 2.3438 61.078-6.1406 86.531-25.922zm-98.062 60.844c-9.6562-1.3125-19.219-3.4688-28.547-6.4688l-76.828 94.125h56.531c2.7656 0.046876 5.5781 0.70313 8.2031 2.0625 8.8125 4.5469 12.281 15.375 7.7344 24.188l-17.391 33.469 78.703-76.078h-48.375c-3.9375-0.046876-7.9219-1.3594-11.25-4.0312-7.7344-6.1875-8.9531-17.531-2.7188-25.266zm-341.76-307.5c6.8438-7.125 18.234-7.3594 25.406-0.51562 7.125 6.8438 7.3594 18.234 0.51562 25.406l-1.875 1.9219c-6.8438 7.125-18.234 7.3594-25.406 0.51563-7.125-6.8438-7.3594-18.234-0.51562-25.406zm-42.141 62.438c3.9375-9.0938 14.531-13.219 23.625-9.2812s13.219 14.531 9.2812 23.625c-7.5938 17.438-12.375 36.234-13.828 55.547-1.4531 18.75 0.1875 38.016 5.2031 57.047 2.5312 9.5625-3.2344 19.406-12.797 21.938-2.0625 0.51563-4.125 0.70313-6.0938 0.51563-25.453-2.1562-50.438 2.8594-72.328 13.875-21.984 11.062-40.969 28.125-54.328 49.828-13.359 21.656-20.016 46.219-20.016 70.828 0 24.656 6.6562 49.219 20.016 70.875 13.359 21.703 32.109 38.578 53.766 49.453s46.453 15.75 72 13.547l228.14-0.09375c9.9375 0 18 8.0625 18 18s-8.0625 18-18 18h-225.89c-31.828 2.5781-62.906-3.7031-90.234-17.438-27.562-13.828-51.328-35.203-68.25-62.672-16.969-27.562-25.5-58.688-25.5-89.719s8.4844-62.156 25.5-89.672c16.969-27.516 40.922-49.078 68.672-63.047 20.953-10.547 44.109-16.781 67.969-18.047-2.2969-15.469-2.8125-30.891-1.6406-45.938 1.7812-23.344 7.5469-46.078 16.781-67.219z"/>
</svg>