<svg width="200pt" height="200pt" version="1.1" viewBox="0 0 1200 1200" xmlns="http://www.w3.org/2000/svg">
  <path d="m980.11 236.76c-8.4375-8.4844-20.109-13.734-32.953-13.734h-46.406c-0.1875 0-0.42188 0.046875-0.60938 0.046875h-120.47l0.046875-55.922c0-37.688-30.75-68.391-68.484-68.391h-50.016c-0.32812 0-0.65625-0.046875-0.98438-0.046875h-171.47c-37.734 0-68.438 30.703-68.438 68.438v55.922h-167.53c-25.688 0-46.641 20.906-46.641 46.641v40.359c0 25.688 20.906 46.641 46.641 46.641h29.016l42.609 679.26c2.2969 36.562 32.812 65.25 69.469 65.25h365.44c0.14062 0 0.23438 0.046876 0.375 0.046876h46.359c23.625 0 44.578-12 57.188-30.234 6.9844-10.078 11.484-22.031 12.328-35.016l42.609-679.22h29.016c16.078 0 30.281-8.2031 38.672-20.625 5.0625-7.4531 8.0156-16.406 8.0156-26.062l-0.046875-40.406c0-12.844-5.25-24.516-13.734-32.953zm-522.32-69.562c0-17.062 13.875-30.938 30.938-30.938h170.95c0.1875 0 0.32812 0.046875 0.46875 0.046875 9.4219 0 17.719 4.2656 23.438 10.875 4.6406 5.4375 7.5469 12.375 7.5469 20.016v55.922l-233.34-0.046875zm-204.98 152.02c-5.0156 0-9.1406-4.0781-9.1406-9.1406v-40.359c0-5.0156 4.0781-9.1406 9.1406-9.1406h456.66c0.1875 0 0.32812 0.046875 0.46875 0.046875h51c0.1875 0 0.32812-0.046875 0.46875-0.046875h139.64c4.875 0.1875 8.8125 4.2188 8.8125 9.1875v40.359c0 4.9219-3.9844 8.9531-8.9062 9.0938zm109.08 714.47-42.469-676.97h514.78l-42.516 676.82c-1.0781 16.828-14.953 29.953-31.641 30.188h-366.14c-16.922 0-30.984-13.219-32.016-30.047z" stroke="white" stroke-width="10"/>
  <path d="m739.45 401.63c-10.219-0.89062-19.266 7.0781-19.969 17.438l-36.188 528.52c-0.70312 10.312 7.0781 19.266 17.438 19.969 0.42188 0.046875 0.84375 0.046875 1.3125 0.046875 9.75 0 18-7.5938 18.656-17.484l36.188-528.52c0.65625-10.312-7.125-19.219-17.438-19.969z" stroke="white" stroke-width="10"/>
  <path d="m580.74 401.9c-10.359 0-18.75 8.3906-18.75 18.75v528.19c0 10.359 8.3906 18.75 18.75 18.75s18.75-8.3906 18.75-18.75v-528.19c0-10.359-8.4375-18.75-18.75-18.75z" stroke="white" stroke-width="10"/>
  <path d="m422.02 402.28c-10.312 0.70312-18.141 9.6562-17.438 19.969l36.141 527.86c0.65625 9.8906 8.9062 17.484 18.656 17.484 0.42188 0 0.84375 0 1.3125-0.046876 10.312-0.70312 18.141-9.6562 17.438-19.969l-36.141-527.86c-0.70312-10.359-9.8438-18.234-19.969-17.438z" stroke="white" stroke-width="10"/>
</svg>
