<svg width="1200pt" height="1200pt" fill="white"
                    stroke="white" version="1.1" viewBox="0 0 1200 1200" xmlns="http://www.w3.org/2000/svg">
 <path d="m724.97 549.98c-13.828 0-24.984 11.203-24.984 24.984v350.02c0 13.828 11.203 24.984 24.984 24.984 13.828 0 24.984-11.203 24.984-24.984v-350.02c0-13.828-11.203-24.984-24.984-24.984z"/>
 <path d="m624.98 549.98c-13.828 0-24.984 11.203-24.984 24.984v350.02c0 13.828 11.203 24.984 24.984 24.984 13.828 0 24.984-11.203 24.984-24.984v-350.02c0-13.828-11.203-24.984-24.984-24.984z"/>
 <path d="m525 549.98c-13.828 0-24.984 11.203-24.984 24.984v350.02c0 13.828 11.203 24.984 24.984 24.984 13.828 0 24.984-11.203 24.984-24.984v-350.02c0-13.828-11.203-24.984-24.984-24.984z"/>
 <path d="m390.52 108.89c-9.6094 0.23438-18.234 5.9531-22.172 14.719l-41.156 91.125c-5.7188 12.609-0.09375 27.422 12.516 33.094l91.172 41.109c12.562 5.6719 27.375 0.09375 33.047-12.516l41.156-91.125c5.7188-12.609 0.09375-27.422-12.516-33.094l-91.172-41.109c-3.4219-1.5469-7.125-2.2969-10.875-2.2031zm13.078 58.078 45.609 20.578-20.625 45.562-45.562-20.578z"/>
 <path d="m182.29 100.12c-3.75 0.375-7.3594 1.6406-10.547 3.6094l-84.938 52.688c-11.766 7.2656-15.375 22.688-8.1094 34.406l52.734 84.984c7.2656 11.766 22.688 15.375 34.406 8.1094l84.938-52.734c11.719-7.2656 15.328-22.641 8.1094-34.359l-52.734-85.031c-5.0625-8.1562-14.344-12.703-23.859-11.672zm-5.4375 59.297 26.297 42.469-42.469 26.344-26.297-42.516z"/>
 <path d="m813.94 96.047c-7.9688 0.84375-15.047 5.4375-19.031 12.375l-37.5 64.969-121.22-70.031c-11.953-6.8906-27.234-2.8125-34.125 9.1406l-50.016 86.625c-6.9375 11.953-2.8125 27.281 9.1406 34.172l158.86 91.688h-395.02c-14.812 0-26.391 12.844-24.844 27.609l75 725.02c1.3125 12.75 12.047 22.406 24.844 22.406h450c12.797 0 23.531-9.7031 24.844-22.406l64.734-625.82 97.922 56.531c11.953 6.9375 27.281 2.8125 34.172-9.1875l50.016-86.625c6.8906-11.953 2.7656-27.234-9.1875-34.125l-121.26-70.031 37.5-64.922c6.9375-11.953 2.8125-27.281-9.1406-34.172l-190.5-109.97c-4.5938-2.625-9.8906-3.7969-15.141-3.2344zm11.766 59.016 147.24 84.938-24.984 43.312-147.24-84.984zm-192.89 4.125c144.32 83.344 288.66 166.69 432.98 249.98l-24.984 43.312-432.98-249.98zm-280.18 215.81h453.89l85.594 49.406-64.734 625.6h-404.86z"/>
</svg>