<svg width="23pt" height="23pt" version="1.1" viewBox="0 0 1200 1200" xmlns="http://www.w3.org/2000/svg">
 <path d="m66.656 1155.6c12.281 0 22.219-9.9375 22.219-22.219v-888.94l213.52 160.03c3.8438 2.8594 8.5312 4.4531 13.312 4.4531h17.719c0.65625 0 1.2188-0.14062 1.875-0.1875 3.0469-0.09375 6.0938-0.32812 9.0938-0.84375 30.609-2.5312 55.266-13.266 75.188-22.5 13.828-6.4219 25.734-11.953 36.938-13.594 51.375-7.6875 94.734-2.3438 136.6 2.8125 45.281 5.5781 92.016 11.25 144.98-0.5625 74.859-16.734 138.14-41.297 193.4-75 3.3281-2.0156 6.0469-4.875 7.9219-8.2969 46.031-84.047 7.125-134.72-33.656-162.42-6.4219-4.3594-14.766-5.0625-21.797-1.7812-0.9375 0.46875-96 42.844-209.44-0.5625-68.156-26.109-140.26-48.375-203.02-62.672-12-2.7188-23.859 4.7344-26.625 16.734-2.7188 12 4.7344 23.906 16.734 26.625 20.203 4.5938 41.578 10.312 63.328 16.5 0.28125 1.875 0.375 3.8438 1.1719 5.6719 29.203 68.203 30.844 132.28 5.625 195.28-25.219-1.2188-51.984-0.65625-81.797 3.75-12.328 1.8281-23.906 6.0938-35.109 10.969 12.984-30.516 20.578-69.047 20.578-112.08 0-103.88-43.969-182.21-102.23-182.21h-13.312c-3.6094 0-7.1719 0.89062-10.359 2.5781l-253.22 133.22c-1.875 0.98438-3.5156 2.2969-5.0156 3.7031-0.32812 0.32812-0.5625 0.70312-0.84375 0.98438-1.5 1.6406-2.6719 3.4219-3.6562 5.4375-0.23438 0.46875-0.46875 0.89062-0.70312 1.4062-0.79688 2.0156-1.4062 4.125-1.5938 6.375 0 0.42188 0.046875 0.79688 0.046875 1.1719 0 0.23438-0.09375 0.375-0.09375 0.60938v933.32c0 12.281 9.9375 22.219 22.219 22.219zm592.08-988.13c10.734 4.0781 21.188 7.3594 31.547 10.219 14.297 29.953 20.953 59.344 19.031 87.516-0.84375 12.234 8.4375 22.828 20.672 23.672 0.51562 0.046875 1.0312 0.046875 1.5 0.046875 11.578 0 21.375-9 22.172-20.719 1.7812-26.391-2.3438-53.297-11.438-80.391 69.281 7.9219 124.08-7.4062 147.84-15.891 29.531 24.141 33.469 52.453 13.219 92.25-49.828 29.578-107.06 51.328-174.79 66.469-45.422 10.219-86.484 5.1562-129.84-0.14062-6.7969-0.84375-13.641-1.6406-20.531-2.4375 21.328-61.125 21.047-124.45-0.5625-189 27.094 8.7656 54.422 18.141 81.188 28.406zm-325.4-78.516c24.141 0 57.797 52.406 57.797 137.76 0 85.355-33.562 137.63-57.703 137.76h-0.14062c-24.141-0.046875-57.75-52.453-57.75-137.76 0-85.309 33.656-137.76 57.797-137.76zm-87.797 42.047c-9.1406 27.516-14.438 60.047-14.438 95.719 0 27.141 3.0469 52.453 8.5312 75.188l-131.53-98.578zm29.766 712.18c-5.7656 40.266-0.32812 71.344 15.703 89.812 12.984 15 30.188 18.141 42.281 18.141 17.578 0 32.953-7.6875 40.125-20.016 7.9219-13.688 5.7656-32.625-6.0938-53.391-6.0938-10.641-2.3906-24.234 8.25-30.328 10.688-6.0469 24.234-2.3906 30.328 8.25 27.047 47.344 15.328 81.562 5.9531 97.734-15.328 26.391-44.672 42.141-78.562 42.141-30.234 0-57.141-11.906-75.891-33.469-17.25-19.875-35.766-57.75-26.109-125.26 6.5156-45.844 31.266-84.234 69.609-108.14 45-28.078 104.53-34.266 159.24-16.547 70.172 22.734 128.9 43.828 180.71 62.438 57.844 20.766 107.81 38.719 151.69 50.766 11.859 3.2344 18.797 15.469 15.516 27.328-3.2344 11.859-15.422 18.844-27.328 15.516-45.469-12.516-96.188-30.703-154.92-51.844-51.469-18.469-109.88-39.469-179.39-62.016-41.672-13.547-88.5-8.9531-122.02 12-27.422 17.109-44.391 43.641-49.125 76.734zm699.47-151.03c6.9844-22.828 6.5625-41.297-1.125-53.391-7.0312-11.062-18.891-14.812-27.609-16.031-12-1.7344-22.875 1.4062-27.797 7.9688-5.8594 7.8281-1.6875 20.25 1.3594 27 5.0625 11.156 0.09375 24.328-11.109 29.391-11.156 5.0625-24.328 0.09375-29.391-11.109-16.5-36.422-4.8281-60.703 3.5625-71.953 14.672-19.594 41.297-29.297 69.516-25.312 25.406 3.5625 46.312 16.406 58.922 36.188 10.406 16.312 19.922 45.234 6.1406 90.281-9.375 30.656-30.141 54.047-60.094 67.594-17.766 8.0625-38.156 12.047-59.109 12.047-23.578 0-47.906-5.0625-70.078-15.094-20.625-9.3281-41.859-19.688-63.984-30.516-94.078-45.938-200.76-98.016-353.48-117.05-12.188-1.5-20.812-12.609-19.266-24.797 1.5-12.188 12.516-20.906 24.797-19.266 160.08 19.969 275.06 76.125 367.45 121.22 21.75 10.641 42.562 20.812 62.812 29.953 30.656 13.875 66.094 15.047 92.578 3.0469 18.188-8.25 30.281-21.75 35.906-40.078zm141.14 142.5c-75.469 34.734-135.71 51.047-195.24 53.016h-0.75c-11.953 0-21.797-9.4688-22.219-21.469-0.42188-12.281 9.2344-22.547 21.469-22.922 53.344-1.7344 108.28-16.828 178.13-48.984 11.156-5.0625 24.328-0.23438 29.484 10.922 5.1094 11.156 0.23438 24.375-10.922 29.484zm-387.66-226.36c-3.4688 8.6719-11.812 13.969-20.625 13.969-2.7188 0-5.5312-0.51562-8.25-1.5938-294.74-117.7-371.02-83.344-434.21-30.281-9.375 7.875-23.391 6.7031-31.312-2.7188-7.875-9.375-6.6562-23.391 2.7188-31.312 86.062-72.281 192-91.688 479.29 23.062 11.391 4.5469 16.922 17.484 12.422 28.875zm140.16-163.74c-12.328-1.1719-22.969 8.1562-23.953 20.391-0.98438 12.234 8.1562 22.969 20.391 23.953 7.3125 0.60938 14.578 0.89062 21.844 0.89062 16.125 0 32.156-1.6406 48.141-4.5 0.9375 0.60938 1.7812 1.3594 2.8594 1.8281 38.109 16.688 70.828 24.984 98.672 24.984 21.844 0 40.688-5.1094 56.859-15.281 39.516-24.891 59.297-76.594 62.25-162.66 0.1875-6.0469-2.0625-11.953-6.3281-16.266-4.2188-4.3125-9.8438-6.9375-16.125-6.7031-80.953 0.84375-187.64 15.844-206.16 130.5-19.266 3.4219-38.672 4.4531-58.547 2.9062zm241.31-88.172c-4.5469 54.281-18 88.828-40.172 102.8-15.141 9.5625-37.031 10.828-65.109 4.1719 11.25-5.1562 22.453-10.875 33.562-17.531 10.547-6.2812 13.969-19.922 7.7344-30.469-6.2812-10.547-19.922-14.016-30.469-7.7344-13.172 7.875-26.344 14.344-39.469 19.734 12.516-36.703 45.984-65.766 133.97-70.969zm-418.36 668.06c13.078 7.7812 26.156 14.25 39.188 19.641-12.188-35.156-44.344-65.578-133.97-70.875 5.3906 90.375 23.203 119.16 72.516 124.74 12.188 1.3594 20.953 12.375 19.594 24.562-1.2656 11.344-10.875 19.734-22.031 19.734-0.84375 0-1.6875-0.046875-2.5312-0.14062-98.766-11.109-109.83-96.75-113.06-191.16-0.1875-6.0469 2.0625-11.953 6.3281-16.266 4.2188-4.3125 10.453-6 16.125-6.7031 80.156 0.84375 187.18 15.797 205.82 130.5 19.359 3.4688 38.906 4.5 58.781 2.9531 12-1.125 22.969 8.1562 23.953 20.391s-8.1562 22.969-20.391 23.953c-7.3125 0.60938-14.578 0.89062-21.844 0.89062-51.516 0-102.33-14.766-151.26-43.969-10.547-6.2812-13.969-19.922-7.7344-30.469 6.2812-10.547 19.922-14.016 30.469-7.7344z"/>
</svg>