 <svg
                    width="18pt"
                    height="18pt"
                    version="1.1"
                    viewBox="0 0 1200 1200"
                    xmlns="http://www.w3.org/2000/svg"
                    fill="white"
                    stroke="white"
                    stroke-width="50"
                  >
                    <path d="m646.88 600 276-276c21.066-21.094 32.902-49.688 32.902-79.5s-11.836-58.406-32.902-79.5l-58.125-58.125c-21.078-20.953-49.59-32.715-79.312-32.715s-58.234 11.762-79.312 32.715l-439.88 440.25c-13.969 14.051-21.809 33.062-21.809 52.875s7.8398 38.824 21.809 52.875l439.88 440.25c21.078 20.953 49.59 32.715 79.312 32.715s58.234-11.762 79.312-32.715l58.125-58.125c21.066-21.094 32.902-49.688 32.902-79.5s-11.836-58.406-32.902-79.5zm223.12 381.75-58.125 58.125c-7.0273 6.9844-16.531 10.906-26.438 10.906s-19.41-3.9219-26.438-10.906l-439.88-439.88 439.88-439.88c7.0273-6.9844 16.531-10.906 26.438-10.906s19.41 3.9219 26.438 10.906l58.125 58.125c6.8711 7.0117 10.719 16.434 10.719 26.25s-3.8477 19.238-10.719 26.25l-276 276.38c-13.969 14.051-21.809 33.062-21.809 52.875s7.8398 38.824 21.809 52.875l276 276.38c6.8711 7.0117 10.719 16.434 10.719 26.25s-3.8477 19.238-10.719 26.25z" />
                  </svg>